<svg width="1024" height="283" viewBox="0 0 1024 283" fill="none" xmlns="http://www.w3.org/2000/svg">
<path opacity="0.501395" fill-rule="evenodd" clip-rule="evenodd" d="M178.804 283.097H185.022C180.893 270.26 171.897 249.032 153.874 230.67C125.814 202.082 79.1448 182.256 52.91 176.702C45.8229 175.201 54.1925 183.624 71.2371 200.777L71.2375 200.778L71.2386 200.779C77.601 207.182 85.172 214.801 93.599 223.575C109.985 240.635 128.943 247.423 144.617 253.035C158.601 258.042 169.97 262.113 174.567 271.707C176.356 275.442 177.748 279.449 178.804 283.097ZM185.134 283.097H199.4C199.679 278.478 200.304 272.896 201.642 267.632C204.35 256.969 214.771 250.582 227.587 242.727C228.889 241.929 230.216 241.115 231.562 240.281C230.365 250.642 231.473 260.141 232.434 268.378L232.434 268.378C233.077 273.889 233.654 278.835 233.431 283.097H240.477C242.76 278.57 244.862 273.433 246.486 267.716C250.054 255.156 251.301 240.409 251.146 226.556C258.657 220.323 265.968 212.674 272.227 202.688C278.859 192.105 284.868 182.863 289.918 175.097L289.919 175.095L289.922 175.091L289.922 175.09C303.453 154.281 310.097 144.063 303.405 146.99C278.634 157.824 236.451 187.209 214.243 221.821C205.214 235.893 199.962 250.417 196.908 262.7C196.853 249.412 197.337 235.16 199.226 226.426C200.925 218.576 206.827 210.708 213.792 201.423L213.792 201.423L213.792 201.423C224.579 187.045 237.915 169.267 242.14 142.891C249.094 99.4813 251.026 80.3644 245.399 84.5412C226.074 98.8874 198.904 141.212 192.237 179.937C188.566 201.26 189.232 234.188 190.572 259.475C189.726 254.648 188.857 250.013 188.031 245.605C185.58 232.53 183.502 221.446 183.502 213.233C183.5 186.32 188.842 160.837 193.636 137.971L193.636 137.971C197.299 120.502 200.641 104.561 201.035 90.6776C203.032 20.2647 183.253 -8.7749 180.717 2.28423C171.742 41.4259 162.54 56.3523 155.917 67.0973C149.455 77.5789 145.446 84.0817 146.493 105.202C147.677 129.097 152.622 143.139 158.598 160.11C162.8 172.042 167.511 185.422 171.784 204.693C172.383 207.391 173.016 210.438 173.672 213.74C169.223 200.417 163.979 187.487 158.058 176.731C134.082 133.174 52.5469 116.767 36.8879 123.692C31.8363 125.926 35.6896 127.056 42.8999 129.17L42.9001 129.17L42.9003 129.17C49.8489 131.207 59.915 134.158 68.1338 139.892C73.6268 143.725 79.0174 151.175 85.268 159.814C98.0746 177.514 114.491 200.204 142.797 206.991C173.545 214.364 180.677 256.67 184.658 280.287L184.658 280.288L184.658 280.288L184.659 280.289L184.659 280.29L184.659 280.292L184.659 280.294L184.663 280.316C184.825 281.275 184.981 282.203 185.134 283.097ZM259.331 283.097H253.796C257.516 266.858 262.681 247.889 268.696 235.547C281.071 210.15 309.659 185.205 327.011 178.182C332.063 176.137 326.983 188.867 313.504 217.411C305.314 234.755 291.849 244.96 280.959 253.214C273.926 258.544 267.967 263.06 265.195 268.16C263.178 271.871 261.17 277.273 259.331 283.097ZM97.8445 283.097C92.3777 266.134 84.3727 244.016 76.1152 230.698C61.3056 206.813 30.4181 185.176 12.4691 180.117C7.24339 178.644 13.549 190.74 29.7657 217.632C39.6192 233.972 54.0156 242.628 65.6593 249.628C73.1786 254.148 79.5499 257.979 82.8085 262.743C86.0336 267.458 89.5501 275.286 92.6454 283.097H97.8445ZM85.2896 283.097H80.5625C76.6183 279.434 70.4382 278.08 63.1276 276.477C53.2213 274.306 41.2394 271.68 29.9324 262.238C24.1173 257.382 18.9151 253.188 14.5435 249.664L14.5425 249.663C2.83109 240.221 -2.91962 235.585 1.47143 235.902C17.7261 237.076 47.4868 245.538 66.7967 261.306C75.163 268.137 81.1691 276.178 85.2896 283.097ZM274.473 283.097H267.28C270.618 276.765 275.222 269.824 281.474 263.511C299.125 245.687 327.889 233.97 343.939 230.999C348.275 230.196 343.012 235.445 332.295 246.134L332.294 246.135L332.287 246.142C328.288 250.131 323.53 254.877 318.228 260.348C307.913 270.992 296.255 274.934 286.617 278.192L286.616 278.193L286.615 278.193C281.974 279.762 277.802 281.173 274.473 283.097ZM852.233 219.189C866.197 185.087 898.785 151.776 918.646 142.501C924.428 139.8 918.72 156.906 903.521 195.238C894.285 218.529 878.92 232.137 866.493 243.143C858.468 250.25 851.669 256.273 848.536 263.117C846.225 268.165 843.942 275.555 841.864 283.509H835.519C839.636 261.573 845.408 235.857 852.233 219.189ZM822.741 283.509C824.581 279.443 826.259 275.006 827.639 270.211C835.999 241.167 833.364 201.881 828.547 181.617C827.246 176.143 824.814 184.772 819.862 202.345L819.862 202.345C818.014 208.905 815.814 216.712 813.191 225.497C808.091 242.576 809.916 258.123 811.426 270.976L811.426 270.98C811.958 275.507 812.45 279.701 812.587 283.509H822.741ZM859.115 283.509C862.956 280.87 867.82 278.981 873.242 276.875C884.279 272.588 897.627 267.404 909.368 253.166C915.405 245.846 920.824 239.498 925.378 234.163L925.382 234.159L925.382 234.158C937.584 219.864 943.576 212.846 938.605 213.88C920.202 217.707 887.285 233.186 867.191 257.022C860.008 265.542 854.759 274.944 850.98 283.509H859.115ZM1009.47 203.277C993.477 203.493 963.437 214.444 946.404 230.748C944.629 232.448 942.901 234.096 941.227 235.695L941.227 235.695C926.84 249.428 916.37 259.422 912.887 265.754C910.475 270.138 913.918 267.953 920.281 263.916C924.175 261.444 929.163 258.279 934.571 255.502C939.267 253.09 944.6 251.523 950.313 249.845C961.926 246.433 975.109 242.56 987.706 230.189C1006.5 211.732 1014.13 203.214 1009.47 203.277ZM1019.35 258.765C1009.79 258.598 1001.55 256.974 993.815 255.449C982.174 253.154 971.679 251.084 959.537 254.553C939.328 260.327 928.081 274.162 937.097 271.417C946.113 268.672 963.818 267.356 985.896 268.769C1007.97 270.182 1032.58 258.996 1019.35 258.765Z" fill="#6078F4" fill-opacity="0.75"/>
</svg>
