<svg width="65" height="94" viewBox="0 0 65 94" fill="none" xmlns="http://www.w3.org/2000/svg">
<path d="M65 94H0.253411V80.3722L23.5039 56.8564C30.3882 49.7995 34.8863 44.9189 36.9981 42.2144C39.1098 39.4677 40.6303 36.9323 41.5595 34.6082C42.4886 32.2841 42.9532 29.8755 42.9532 27.3823C42.9532 23.6637 41.9185 20.8959 39.8489 19.0789C37.8216 17.2619 35.0975 16.3533 31.6764 16.3533C28.0864 16.3533 24.602 17.1773 21.2232 18.8254C17.8444 20.4734 14.3177 22.8186 10.6433 25.8611L0 13.2475C4.5614 9.35986 8.34146 6.61317 11.3402 5.00742C14.3389 3.40166 17.6121 2.17622 21.1598 1.33109C24.7076 0.443695 28.6777 0 33.0702 0C38.8564 0 43.9669 1.05642 48.4016 3.16925C52.8363 5.28209 56.2784 8.24005 58.7281 12.0432C61.1777 15.8463 62.4025 20.1987 62.4025 25.1005C62.4025 29.3684 61.6423 33.3828 60.1218 37.1436C58.6436 40.8622 56.3207 44.6864 53.153 48.6163C50.0276 52.5462 44.4948 58.1452 36.5546 65.4134L24.6443 76.6325V77.5199H65V94Z" fill="#1E4470"/>
</svg>
