<svg width="1920" height="2065" viewBox="0 0 1920 2065" fill="none" xmlns="http://www.w3.org/2000/svg">
<rect width="1920" height="2065" fill="url(#paint0_linear)"/>
<path opacity="0.1" fill-rule="evenodd" clip-rule="evenodd" d="M1380.96 1945.62C1381.49 1909.46 1381.56 1874.75 1380.69 1849.84C1378.61 1790.65 1372.73 1748.73 1367.45 1711.18C1360.42 1661.1 1354.48 1618.79 1360.12 1553.63C1365.68 1489.35 1395.29 1434.91 1424.33 1381.53C1443.51 1346.27 1462.44 1311.47 1474.01 1274.61C1513.68 1148.28 1571.16 1350.69 1522.6 1549.07C1513.2 1587.45 1497.09 1628.8 1479.49 1673.98C1455.67 1735.13 1429.11 1803.31 1412.74 1880.67C1408.79 1899.32 1407.98 1923.97 1407.77 1952.81C1422.56 1886.54 1445.34 1812.3 1475.49 1756.42C1546.84 1624.21 1773.51 1527.09 1825.37 1544.7C1848.25 1552.47 1815.24 1575.44 1770.99 1606.23L1770.99 1606.23C1751.7 1619.66 1730.26 1634.57 1710.4 1650.36C1685.09 1670.47 1670.13 1693.47 1654.44 1717.61C1629.54 1755.89 1602.79 1797.02 1529.99 1833.96C1448.45 1875.34 1423.59 1986.2 1409.76 2055.12C1423.48 2016.55 1449.45 1962.83 1497.12 1914.1C1584 1825.28 1732.62 1758.92 1817 1738.02C1839.79 1732.38 1813.86 1758.56 1761.06 1811.89L1761.05 1811.9C1741.34 1831.81 1717.88 1855.49 1691.82 1882.72C1690.24 1884.37 1688.65 1885.99 1687.05 1887.59C1684.73 1904.23 1681.97 1924.02 1679.26 1946.45C1673.97 1990.24 1651.91 2022.59 1633.66 2049.33C1630.8 2053.52 1628.03 2057.58 1625.44 2061.52L1589.59 2063.39C1589.22 2052.41 1589.66 2040.83 1591.26 2028.8C1595.19 1999.18 1605.62 1967.96 1618.98 1938.64C1588.58 1955.83 1557.97 1967.58 1530.51 1978.12L1530.51 1978.12C1485.84 1995.26 1449.52 2009.2 1436.02 2038.17C1430.8 2049.35 1426.9 2061.24 1424.02 2072.06L1356.96 2075.58C1355.36 2062.01 1352.5 2045.62 1347.32 2030.31C1336.91 1999.49 1302.01 1982.58 1259.09 1961.77C1210.98 1938.45 1152.79 1910.25 1107.71 1852.11C1084.52 1822.2 1063.57 1796.13 1045.96 1774.22C998.785 1715.52 975.622 1686.7 997.858 1694.12C1080.17 1721.56 1221.96 1800.39 1299.46 1898.07C1330.18 1936.79 1349.26 1977.39 1361.11 2012.31C1359.26 1974.15 1355.58 1933.85 1348.35 1909.18C1341.68 1886.42 1321.4 1864.35 1297.46 1838.29C1260.39 1797.95 1214.56 1748.07 1196.96 1671.35C1167.99 1545.08 1158.89 1489.28 1177.73 1500.56C1242.45 1539.32 1336.72 1658.87 1364.07 1771.43C1375.37 1817.93 1379.73 1884.04 1380.96 1945.62ZM1093.73 2089.36C1078.95 2039.7 1057.69 1977.58 1034.3 1939.01C990.364 1866.55 893.891 1798.25 836.54 1780.65C819.843 1775.53 838.219 1812.05 886.204 1893.56C915.36 1943.09 960.57 1970.72 997.136 1993.07C1020.75 2007.5 1040.76 2019.73 1050.51 2034.23C1059.43 2047.49 1068.71 2068.61 1076.93 2090.24L1093.73 2089.36ZM1052.87 2091.5L1073.41 2090.42C1037.98 2059.42 987.212 2018.13 948.063 1999.05C881.094 1966.41 777.282 1961.87 726.516 1976.16C711.736 1980.32 742.702 1998.56 816.971 2035.96C862.098 2058.69 908.665 2057.59 946.329 2056.7L946.329 2056.7C970.651 2056.12 991.26 2055.63 1005.37 2061.71C1018.62 2067.41 1036.09 2079.06 1052.87 2091.5ZM1704.3 2057.39L1687.41 2058.27C1702.63 2007.51 1725.27 1941.32 1750.03 1900.83C1794.53 1828.05 1891.54 1759.07 1949.03 1741.07C1965.77 1735.82 1947.11 1772.47 1898.49 1854.33C1868.94 1904.06 1823.52 1932.01 1786.77 1954.62C1763.05 1969.22 1742.94 1981.59 1733.08 1996.16C1723.36 2010.52 1713.16 2033.99 1704.3 2057.39ZM1788.6 2052.97L1768.05 2054.05C1780.41 2032.48 1799.1 2006.74 1826.23 1984.37C1886.61 1934.62 1982.02 1904.52 2034.64 1898.22C2053.03 1896.01 2017.77 1925.69 1957.76 1976.18L1957.47 1976.43C1953.86 1979.46 1950.16 1982.57 1946.38 1985.76C1911.06 2015.51 1872.53 2025.33 1840.68 2033.45C1819.33 2038.9 1800.98 2043.57 1788.6 2052.97Z" fill="#132E52"/>
<path fill-rule="evenodd" clip-rule="evenodd" d="M1262.43 1979.54H1130.74L1125.87 2065.01H1272.19L1262.43 1979.54Z" fill="#45B8FF"/>
<path fill-rule="evenodd" clip-rule="evenodd" d="M1208.94 1815.62C1206.09 1805.91 1193.21 1803.39 1187.43 1811.41L1143.57 1872.32C1122.04 1884.47 1106.99 1903.95 1104.19 1926.96C1099.07 1968.96 1136.76 2006.81 1188.36 2011.48C1239.69 2016.13 1285.45 1986.21 1290.97 1944.56L1291.28 1944.77L1311.56 1861.3C1313.93 1851.52 1303.05 1844.24 1293.66 1849.34L1250.57 1872.73C1242.15 1867.96 1232.7 1864.24 1222.51 1861.87L1208.94 1815.62Z" fill="#45B8FF"/>
<path fill-rule="evenodd" clip-rule="evenodd" d="M1183.6 1935.38C1180.93 1937.17 1177.34 1936.46 1175.64 1933.8V1933.8C1172.96 1929.61 1176.74 1924.19 1181.68 1925.17V1925.17C1186.61 1926.15 1187.81 1932.56 1183.6 1935.38V1935.38Z" fill="white"/>
<path fill-rule="evenodd" clip-rule="evenodd" d="M1127.54 1910.53C1126.06 1917 1130.7 1923.35 1137.92 1924.71C1145.14 1926.07 1152.19 1921.93 1153.67 1915.46C1155.16 1908.99 1150.51 1902.64 1143.29 1901.28C1136.08 1899.92 1129.02 1904.06 1127.54 1910.53ZM1213.56 1927.61C1212.08 1934.08 1216.72 1940.43 1223.94 1941.79C1231.16 1943.16 1238.21 1939.02 1239.69 1932.55C1241.18 1926.08 1236.53 1919.73 1229.31 1918.36C1222.1 1917 1215.04 1921.14 1213.56 1927.61Z" fill="white"/>
<path fill-rule="evenodd" clip-rule="evenodd" d="M1316.48 2065.01C1316.48 2065.01 1333.44 2041.77 1316.48 2022.64C1297.58 2001.32 1294.63 1974.94 1318.53 1956.61C1341.67 1938.86 1381.88 1935.59 1401.39 1969.85C1420.91 2004.11 1396.28 2012.99 1388.95 2004.64C1381.62 1996.29 1387.84 1967.39 1354.16 1970.72C1320.47 1974.06 1329.67 1998.15 1344.55 2015.82C1358.16 2031.98 1352.18 2052.82 1346.76 2065.01C1346.76 2065.01 1316.48 2065.01 1316.48 2065.01Z" fill="#45B8FF"/>
<defs>
<linearGradient id="paint0_linear" x1="960" y1="0" x2="960" y2="2065" gradientUnits="userSpaceOnUse">
<stop stop-color="#1F4370"/>
<stop offset="1" stop-color="#195AA9"/>
</linearGradient>
</defs>
</svg>
