<svg width="1440" height="237" viewBox="0 0 1440 237" fill="none" xmlns="http://www.w3.org/2000/svg">
<path d="M1440 54H0V237H1440V54Z" fill="#6DDAA1"/>
<path d="M1440 54H0V237H1440V54Z" fill="url(#paint0_linear)"/>
<path d="M1440 54H0V237H1440V54Z" fill="url(#paint1_linear)"/>
<path opacity="0.5" fill-rule="evenodd" clip-rule="evenodd" d="M1417.75 215.35C1396.67 220.237 1384.95 231.95 1394.35 229.632C1403.03 227.493 1419.42 226.374 1440 227.153V214.231C1432.57 213.355 1425.05 213.733 1417.75 215.35ZM1404.05 195.222L1398.65 199.409C1383.65 211.022 1372.74 219.478 1369.1 224.834C1366.59 228.542 1370.18 226.703 1376.81 223.275C1380.87 221.197 1386.08 218.518 1391.71 216.159C1396.61 214.161 1402.17 212.801 1408.13 211.382C1418.07 209.004 1429.13 206.385 1440 199.719V177.642C1427 181.72 1413.58 187.816 1404.05 195.222ZM1395.92 180.95C1376.73 184.188 1342.41 197.281 1321.45 217.459C1315.52 223.204 1310.41 229.731 1306.25 236.857H1319.84C1322.3 235.968 1324.96 235.118 1327.76 234.239C1339.27 230.611 1353.19 226.244 1365.43 214.191C1371.73 207.984 1377.37 202.637 1382.12 198.12C1391.81 188.915 1397.73 183.279 1397.73 181.5C1397.74 180.89 1397.16 180.74 1395.92 180.95ZM1283.1 161.681C1282.51 158.733 1281.86 156.035 1281.16 153.686C1280.16 150.398 1278.63 153.136 1275.95 160.342C1274.86 163.26 1273.59 166.928 1272.1 171.216C1270.17 176.762 1267.88 183.359 1265.15 190.794C1261.39 201.008 1261.24 210.553 1262.02 219.118C1262.35 222.686 1262.84 226.114 1263.3 229.272C1263.69 231.95 1264.06 234.489 1264.3 236.877H1276.7C1278.05 234.202 1279.22 231.445 1280.22 228.622C1287.72 207.455 1286.72 179.891 1283.1 161.681ZM1375.1 120.555C1359.68 126.402 1336.91 143.542 1320.27 163.79C1314.69 170.466 1309.86 177.728 1305.85 185.447C1304.59 187.946 1303.36 190.694 1302.17 193.623C1297 206.295 1292.56 222.346 1289.17 236.857H1296C1297.58 231.942 1299.59 227.174 1302 222.606C1305.27 216.819 1312.36 211.722 1320.73 205.706C1333.73 196.391 1349.73 184.888 1359.34 165.169C1375.19 132.748 1381.14 118.277 1375.11 120.555H1375.1ZM219.45 195.162C190.19 170.966 141.53 154.186 114.17 149.498C106.78 148.219 115.51 155.355 133.28 169.856C139.91 175.283 147.81 181.72 156.6 189.155C173.68 203.587 193.45 209.323 209.8 214.081C224.38 218.308 236.23 221.756 241.03 229.882C242.336 232.126 243.473 234.464 244.43 236.877H250.83C243.814 220.69 233.06 206.395 219.45 195.162ZM138.37 195.162C122.92 174.964 90.7202 156.654 72.0002 152.387C66.5502 151.127 73.1302 161.381 90.0002 184.118C100.27 197.95 115.28 205.266 127.42 211.192C135.27 215.01 141.91 218.268 145.31 222.286C148.22 225.744 151.36 231.171 154.24 236.857H160C154.31 222.916 146.46 205.766 138.37 195.172V195.162ZM128.65 221.057C108.52 207.734 77.4802 200.569 60.5302 199.569C55.9502 199.309 61.9502 203.227 74.1602 211.212C78.7202 214.211 84.1602 217.739 90.1602 221.856C101.95 229.852 114.44 232.06 124.77 233.899C129.174 234.542 133.52 235.527 137.77 236.847H145.87C140.979 230.731 135.17 225.408 128.65 221.067V221.057ZM417.65 195.412C400.91 197.94 370.92 207.854 352.51 222.926C347.576 226.967 343.204 231.649 339.51 236.847H352.51C354.2 236.348 355.98 235.848 357.83 235.348C367.88 232.59 380.03 229.262 390.83 220.247C396.36 215.62 401.32 211.602 405.5 208.254C416.67 199.189 422.16 194.752 417.64 195.422L417.65 195.412ZM400 150.738C381.9 156.684 352.09 177.802 339.19 199.289C333.32 209.044 328.19 223.745 324.42 236.857H330.49C331.842 233.378 333.516 230.032 335.49 226.863C338.38 222.556 344.59 218.718 351.93 214.221C363.28 207.225 377.32 198.61 385.86 183.928C400 159.782 405.25 149.009 400 150.738ZM375.38 124.353C349.55 133.518 305.57 158.333 282.38 187.676C274.255 197.976 268.124 209.699 264.3 222.246C264.25 211.013 264.75 198.96 266.72 191.564C267.6 188.236 269.59 184.918 272.26 181.44C274.93 177.962 278.26 174.344 281.91 170.446C293.16 158.283 307.06 143.242 311.47 120.935C318.72 84.2064 320.73 68.0358 314.87 71.5638C294.72 83.7067 266.38 119.536 259.43 152.277C255.6 170.266 256.3 198.17 257.7 219.568C256.81 215.49 255.91 211.572 255.05 207.824C252.49 196.771 250.32 187.386 250.32 180.44C250.32 157.684 255.89 136.116 260.89 116.767C264.71 101.986 268.19 88.5039 268.61 76.7907C268.902 69.1815 268.795 61.5621 268.29 53.964C265.29 10.9891 249.71 -6.13093 247.44 1.93437C239 31.797 230.37 44.9693 223.69 53.964C222.97 54.9635 222.26 55.8729 221.58 56.7624C214.84 65.6372 210.66 71.134 211.75 89.0136C212.99 109.222 218.14 121.095 224.38 135.457C228.76 145.561 233.67 156.874 238.13 173.175C238.75 175.463 239.41 178.032 240.13 180.84C235.49 169.567 230.03 158.623 223.85 149.528C198.85 112.68 113.85 98.7879 97.5002 104.645C92.2302 106.543 96.2502 107.493 103.77 109.282C111.02 111.011 121.51 113.499 130.08 118.357C135.81 121.595 141.43 127.901 147.95 135.207C161.3 150.198 178.42 169.377 207.95 175.123C223.95 178.242 233.85 188.755 240.24 200.968C246.63 213.181 249.43 226.863 251.49 236.857H267.17C267.527 233.32 268.227 229.826 269.26 226.424C272.08 217.429 282.95 212.002 296.31 205.356L300.43 203.297C299.18 212.062 300.34 220.097 301.34 227.073C301.872 230.316 302.229 233.586 302.41 236.867H311.29C313.156 233.56 314.728 230.095 315.99 226.513C319.71 215.88 320.99 203.407 320.85 191.684C329.227 186.183 336.657 179.362 342.85 171.486C346.31 167.018 349.6 162.821 352.69 158.933C355.78 155.045 358.69 151.437 361.3 148.149C375.42 130.529 382.35 121.924 375.37 124.353H375.38Z" fill="#F3F0E0" fill-opacity="0.6"/>
<path fill-rule="evenodd" clip-rule="evenodd" d="M1178.77 236.857H1027.25L1033.92 182.659L1034.64 182.649H1034.65L1171.2 181.37L1171.37 182.639L1178.77 236.857Z" fill="#F0BB04"/>
<path fill-rule="evenodd" clip-rule="evenodd" d="M1027.64 10.7093C1017.32 2.34414 1001.78 8.95029 1001.41 21.8528L999 104.635C998.78 106.054 998.57 107.493 998.42 108.942C993.42 155.515 1035.03 197.98 1091.28 203.787C1147.22 209.563 1196.62 176.942 1202.1 130.829L1220.85 46.4584C1223.85 33.386 1209.42 23.3819 1197.36 30.078L1158.7 51.5055C1143.65 42.4574 1126.77 36.8753 1109.29 35.165C1093.68 33.4935 1077.9 34.9131 1062.84 39.3426L1027.64 10.7093Z" fill="#F0BB04"/>
<path fill-rule="evenodd" clip-rule="evenodd" d="M1088.11 120.815C1087.46 121.39 1086.69 121.823 1085.86 122.089C1085.03 122.354 1084.15 122.446 1083.29 122.358C1082.42 122.269 1081.58 122.003 1080.82 121.576C1080.06 121.149 1079.4 120.57 1078.87 119.876C1078.11 118.886 1077.65 117.694 1077.55 116.446C1077.46 115.199 1077.73 113.952 1078.34 112.859C1078.95 111.766 1079.87 110.875 1080.97 110.296C1082.08 109.718 1083.34 109.477 1084.58 109.603C1085.83 109.73 1087.01 110.218 1087.98 111.008C1088.95 111.798 1089.67 112.855 1090.04 114.048C1090.42 115.242 1090.43 116.518 1090.09 117.721C1089.75 118.924 1089.06 119.999 1088.11 120.815Z" fill="white"/>
<path fill-rule="evenodd" clip-rule="evenodd" d="M1026.3 98.1882C1025.51 105.434 1031.39 111.99 1039.42 112.82C1047.45 113.649 1054.55 108.442 1055.28 101.196C1056.01 93.9507 1050.19 87.4045 1042.21 86.575C1034.23 85.7455 1027.08 90.9425 1026.3 98.1882ZM1120.3 107.673C1119.56 114.928 1125.39 121.475 1133.42 122.304C1141.45 123.134 1148.55 117.927 1149.34 110.681C1150.13 103.435 1144.24 96.889 1136.21 96.0595C1128.18 95.23 1121.08 100.437 1120.29 107.673H1120.3Z" fill="white"/>
<path d="M1123.64 236.857H1062.64C1068.33 225.604 1077.64 215.38 1092.64 215.38C1107.64 215.38 1117.39 225.604 1123.64 236.857Z" fill="white" fill-opacity="0.8"/>
<path fill-rule="evenodd" clip-rule="evenodd" d="M1307.7 198.45C1306.58 197.003 1305.73 195.368 1305.18 193.623C1301.75 183.738 1301.54 166.758 1286.1 161.641C1283.78 160.889 1281.38 160.43 1278.95 160.272C1276.06 160.073 1273.15 160.133 1270.27 160.452C1234 164.19 1243.87 191.154 1259.93 210.923C1261.96 213.413 1263.67 216.146 1265.02 219.058C1267.56 224.632 1268.87 230.691 1268.85 236.817H1237.64C1236.95 230.055 1234.18 223.674 1229.7 218.558C1209.38 194.692 1206.18 165.179 1231.9 144.671C1256.83 124.803 1300.08 121.145 1321.08 159.483C1321.88 160.948 1322.61 162.371 1323.28 163.75C1340.08 198.59 1315.27 207.435 1307.7 198.45Z" fill="#F0BB04"/>
<path fill-rule="evenodd" clip-rule="evenodd" d="M1307.7 198.45C1306.58 197.003 1305.73 195.368 1305.18 193.623C1301.75 183.738 1301.54 166.758 1286.1 161.641C1283.78 160.889 1281.38 160.43 1278.95 160.272C1276.06 160.073 1273.15 160.133 1270.27 160.452C1234 164.19 1243.87 191.154 1259.93 210.923C1261.96 213.413 1263.67 216.146 1265.02 219.058C1267.56 224.632 1268.87 230.691 1268.85 236.817H1237.64C1236.95 230.055 1234.18 223.674 1229.7 218.558C1209.38 194.692 1206.18 165.179 1231.9 144.671C1256.83 124.803 1300.08 121.145 1321.08 159.483C1321.88 160.948 1322.61 162.371 1323.28 163.75C1340.08 198.59 1315.27 207.435 1307.7 198.45Z" fill="url(#paint2_linear)"/>
<defs>
<linearGradient id="paint0_linear" x1="710.989" y1="362.01" x2="723.815" y2="55.1122" gradientUnits="userSpaceOnUse">
<stop stop-color="#6DDAA1"/>
<stop offset="0.63" stop-color="#7EBE74" stop-opacity="0.83"/>
</linearGradient>
<linearGradient id="paint1_linear" x1="719.401" y1="2.71" x2="720.023" y2="151.36" gradientUnits="userSpaceOnUse">
<stop offset="0.21" stop-color="#6DDAA1"/>
<stop offset="0.56" stop-color="#7EBE74" stop-opacity="0.37"/>
</linearGradient>
<linearGradient id="paint2_linear" x1="1271.27" y1="236.857" x2="1271.27" y2="130.08" gradientUnits="userSpaceOnUse">
<stop stop-color="#F1C119"/>
<stop offset="1" stop-color="#F3E2A3" stop-opacity="0.09"/>
</linearGradient>
</defs>
</svg>
