<svg width="120" height="120" viewBox="0 0 120 120" fill="none" xmlns="http://www.w3.org/2000/svg">
<path d="M60 120C93.1371 120 120 93.1371 120 60C120 26.8629 93.1371 0 60 0C26.8629 0 0 26.8629 0 60C0 93.1371 26.8629 120 60 120Z" fill="#34D086"/>
<path d="M91.0435 8.64496C91.0435 16.6777 91.0435 24.7103 91.0443 32.743C91.0443 45.1962 91.0452 57.6495 91.0427 70.1027C91.0642 72.5644 91.4929 75.2414 93.1406 77.107C93.9252 78.0168 95.1765 77.9944 96.249 77.9446C96.7588 77.9704 97.281 77.9531 97.8057 77.9357C99.182 77.8902 100.577 77.8441 101.805 78.5731C104.909 80.405 105.909 85.3498 103.557 88.2455C102.285 89.6499 100.533 90.6066 98.6937 90.816C96.2598 91.1172 93.7588 91.1793 91.3638 90.5628C86.8774 89.4563 83.1194 85.9895 81.1049 81.677C79.2866 78.1001 78.6857 73.9869 78.6206 69.977C78.6245 47.6334 78.6244 25.2897 78.6222 2.94604C83.006 4.3761 87.1687 6.29741 91.0435 8.64496Z" fill="white"/>
<path fill-rule="evenodd" clip-rule="evenodd" d="M7.51343 89.0946C5.61225 85.6717 4.03609 82.0441 2.82666 78.2525C7.54147 75.53 12.2552 72.8057 16.9665 70.0776C15.1146 65.3219 14.6504 60.0374 15.5994 55.0443C16.4586 50.1287 18.8582 45.5666 22.1029 41.8244C23.7941 39.9237 25.7796 38.3016 27.8888 36.8915C32.4789 33.7548 37.9859 31.768 43.5989 31.8598C46.6756 31.9321 49.7581 32.5133 52.5978 33.7415C57.9235 36.0796 62.4514 40.0967 65.641 44.9569C65.8066 45.2173 65.9801 45.4783 66.1548 45.741C67.012 47.0304 67.8999 48.3659 68.0488 49.927C68.2462 51.6792 67.6649 53.5327 66.4309 54.7941C65.8993 55.4135 65.1886 55.8123 64.4845 56.2074C64.2666 56.3297 64.0495 56.4516 63.8384 56.5794C60.921 58.2639 58.0032 59.9479 55.0856 61.6318C48.0761 65.6772 41.0668 69.7226 34.0606 73.7744C34.2795 74.2041 34.6731 74.49 35.0626 74.773C35.2131 74.8823 35.3631 74.9913 35.5021 75.1079C38.8314 77.7367 43.2472 78.8695 47.4152 78.2465C49.9366 77.9143 52.3554 76.9542 54.5245 75.6477C57.1624 74.2467 59.1738 71.9375 60.7823 69.4597C61.1106 68.9608 61.3668 68.421 61.6229 67.8814C61.9524 67.1874 62.2816 66.494 62.7636 65.8886C64.0303 64.3062 65.9604 63.1593 68.0164 63.1025C68.7352 63.067 69.4313 63.2685 70.1221 63.4684C70.3417 63.532 70.5608 63.5955 70.7799 63.651C71.8597 64.1132 72.8355 64.8454 73.533 65.7993C74.5849 67.1246 74.7536 68.9787 74.2835 70.554C72.6397 75.2015 69.5077 79.1619 65.9792 82.515C62.5084 85.7023 58.3372 88.1239 53.8379 89.5341C49.2723 91.0626 44.2969 91.4623 39.549 90.5537C32.9986 89.3859 26.9105 85.709 22.8052 80.4353C22.7636 80.4214 22.6808 80.3947 22.6398 80.3818C17.5937 83.2792 12.5526 86.1848 7.51343 89.0946ZM29.0815 53.4783C30.4453 50.5346 32.8972 48.2449 35.6676 46.6373C37.7113 45.3516 40.0662 44.5654 42.4847 44.4673C46.4315 44.4939 50.2578 46.4333 52.9275 49.3182C44.7169 54.0681 36.5055 58.8143 28.2842 63.5433C27.4007 60.2343 27.7603 56.6168 29.0815 53.4783Z" fill="white"/>
</svg>
