<svg width="130" height="26" viewBox="0 0 130 26" fill="none" xmlns="http://www.w3.org/2000/svg">
<path d="M1.9482 19.4442C1.5962 19.4442 1.3002 19.3242 1.0602 19.0842C0.820195 18.8442 0.700195 18.5482 0.700195 18.1962V1.9482C0.700195 1.5802 0.820195 1.2842 1.0602 1.0602C1.3002 0.820195 1.5962 0.700195 1.9482 0.700195H12.7962C13.1642 0.700195 13.4602 0.812195 13.6842 1.0362C13.9082 1.2442 14.0202 1.5242 14.0202 1.8762C14.0202 2.2122 13.9082 2.4842 13.6842 2.6922C13.4602 2.9002 13.1642 3.0042 12.7962 3.0042H3.1962V8.83619H10.0842C10.4522 8.83619 10.7482 8.9482 10.9722 9.1722C11.1962 9.3802 11.3082 9.65219 11.3082 9.9882C11.3082 10.3242 11.1962 10.6042 10.9722 10.8282C10.7482 11.0362 10.4522 11.1402 10.0842 11.1402H3.1962V17.1402H12.7962C13.1642 17.1402 13.4602 17.2442 13.6842 17.4522C13.9082 17.6602 14.0202 17.9322 14.0202 18.2682C14.0202 18.6202 13.9082 18.9082 13.6842 19.1322C13.4602 19.3402 13.1642 19.4442 12.7962 19.4442H1.9482ZM23.9369 19.5402C22.7689 19.5402 21.7209 19.2522 20.7929 18.6762C19.8649 18.0842 19.1289 17.2922 18.5849 16.3002C18.0569 15.2922 17.7929 14.1562 17.7929 12.8922C17.7929 11.6282 18.0809 10.4922 18.6569 9.4842C19.2489 8.4762 20.0409 7.6842 21.0329 7.1082C22.0409 6.5162 23.1689 6.2202 24.4169 6.2202C25.6649 6.2202 26.7849 6.5162 27.7769 7.1082C28.7689 7.6842 29.5529 8.4762 30.1289 9.4842C30.7209 10.4922 31.0169 11.6282 31.0169 12.8922V18.2442C31.0169 18.5962 30.8969 18.8922 30.6569 19.1322C30.4329 19.3562 30.1449 19.4682 29.7929 19.4682C29.4409 19.4682 29.1449 19.3562 28.9049 19.1322C28.6809 18.8922 28.5689 18.5962 28.5689 18.2442V17.3562C28.0089 18.0282 27.3289 18.5642 26.5289 18.9642C25.7449 19.3482 24.8809 19.5402 23.9369 19.5402ZM24.4169 17.3802C25.2329 17.3802 25.9609 17.1882 26.6009 16.8042C27.2409 16.4042 27.7449 15.8682 28.1129 15.1962C28.4809 14.5082 28.6649 13.7402 28.6649 12.8922C28.6649 12.0282 28.4809 11.2602 28.1129 10.5882C27.7449 9.9002 27.2409 9.3642 26.6009 8.9802C25.9609 8.5802 25.2329 8.3802 24.4169 8.3802C23.6169 8.3802 22.8889 8.5802 22.2329 8.9802C21.5929 9.3642 21.0809 9.9002 20.6969 10.5882C20.3289 11.2602 20.1449 12.0282 20.1449 12.8922C20.1449 13.7402 20.3289 14.5082 20.6969 15.1962C21.0809 15.8682 21.5929 16.4042 22.2329 16.8042C22.8889 17.1882 23.6169 17.3802 24.4169 17.3802ZM40.6362 19.5402C39.5162 19.5402 38.4762 19.3722 37.5162 19.0362C36.5722 18.6842 35.8362 18.2442 35.3082 17.7162C35.0682 17.4602 34.9642 17.1722 34.9962 16.8522C35.0442 16.5162 35.2042 16.2442 35.4762 16.0362C35.7962 15.7802 36.1082 15.6762 36.4122 15.7242C36.7322 15.7562 37.0042 15.8922 37.2282 16.1322C37.5002 16.4362 37.9322 16.7242 38.5242 16.9962C39.1322 17.2522 39.8042 17.3802 40.5402 17.3802C41.4682 17.3802 42.1722 17.2282 42.6522 16.9242C43.1482 16.6202 43.4042 16.2282 43.4202 15.7482C43.4362 15.2682 43.2042 14.8522 42.7242 14.5002C42.2602 14.1482 41.4042 13.8602 40.1562 13.6362C38.5402 13.3162 37.3642 12.8362 36.6282 12.1962C35.9082 11.5562 35.5482 10.7722 35.5482 9.84419C35.5482 9.02819 35.7882 8.35619 36.2682 7.8282C36.7482 7.28419 37.3642 6.8842 38.1162 6.6282C38.8682 6.3562 39.6522 6.2202 40.4682 6.2202C41.5242 6.2202 42.4602 6.3882 43.2762 6.7242C44.0922 7.0602 44.7402 7.5242 45.2202 8.1162C45.4442 8.3722 45.5482 8.6442 45.5322 8.9322C45.5162 9.2042 45.3802 9.43619 45.1242 9.62819C44.8682 9.80419 44.5642 9.8602 44.2122 9.7962C43.8602 9.7322 43.5642 9.58819 43.3242 9.36419C42.9242 8.9802 42.4922 8.7162 42.0282 8.5722C41.5642 8.4282 41.0282 8.35619 40.4202 8.35619C39.7162 8.35619 39.1162 8.4762 38.6202 8.7162C38.1402 8.9562 37.9002 9.3082 37.9002 9.7722C37.9002 10.0602 37.9722 10.3242 38.1162 10.5642C38.2762 10.7882 38.5802 10.9962 39.0282 11.1882C39.4762 11.3642 40.1322 11.5402 40.9962 11.7162C42.8042 12.0682 44.0522 12.5722 44.7402 13.2282C45.4442 13.8682 45.7962 14.6602 45.7962 15.6042C45.7962 16.3402 45.5962 17.0042 45.1962 17.5962C44.8122 18.1882 44.2362 18.6602 43.4682 19.0122C42.7162 19.3642 41.7722 19.5402 40.6362 19.5402ZM52.4435 25.2042C52.2835 25.2042 52.0915 25.1562 51.8675 25.0602C51.1635 24.7402 50.9715 24.2362 51.2915 23.5482L53.6915 18.1482L48.2915 7.9002C48.1315 7.5962 48.1075 7.3082 48.2195 7.0362C48.3475 6.7482 48.5635 6.54019 48.8675 6.4122C49.1715 6.2842 49.4595 6.2762 49.7315 6.3882C50.0035 6.4842 50.2115 6.6842 50.3555 6.9882L54.7475 15.7242L58.6115 7.0122C58.9315 6.3402 59.4355 6.1482 60.1235 6.4362C60.8435 6.7402 61.0435 7.24419 60.7235 7.94819L53.3795 24.4602C53.1875 24.9562 52.8755 25.2042 52.4435 25.2042ZM65.693 19.4442C65.341 19.4442 65.045 19.3242 64.805 19.0842C64.581 18.8442 64.469 18.5482 64.469 18.1962V1.9482C64.469 1.5962 64.589 1.3002 64.829 1.0602C65.069 0.820195 65.357 0.700195 65.693 0.700195C66.045 0.700195 66.341 0.820195 66.581 1.0602C66.821 1.3002 66.941 1.5962 66.941 1.9482V16.9482H75.629C75.981 16.9482 76.277 17.0682 76.517 17.3082C76.757 17.5482 76.877 17.8442 76.877 18.1962C76.877 18.5482 76.757 18.8442 76.517 19.0842C76.277 19.3242 75.981 19.4442 75.629 19.4442H65.693ZM86.2994 19.5402C85.1314 19.5402 84.0834 19.2522 83.1554 18.6762C82.2274 18.0842 81.4914 17.2922 80.9474 16.3002C80.4194 15.2922 80.1554 14.1562 80.1554 12.8922C80.1554 11.6282 80.4434 10.4922 81.0194 9.4842C81.6114 8.4762 82.4034 7.6842 83.3954 7.1082C84.4034 6.5162 85.5314 6.2202 86.7794 6.2202C88.0274 6.2202 89.1474 6.5162 90.1394 7.1082C91.1314 7.6842 91.9154 8.4762 92.4914 9.4842C93.0834 10.4922 93.3794 11.6282 93.3794 12.8922V18.2442C93.3794 18.5962 93.2594 18.8922 93.0194 19.1322C92.7954 19.3562 92.5074 19.4682 92.1554 19.4682C91.8034 19.4682 91.5074 19.3562 91.2674 19.1322C91.0434 18.8922 90.9314 18.5962 90.9314 18.2442V17.3562C90.3714 18.0282 89.6914 18.5642 88.8914 18.9642C88.1074 19.3482 87.2434 19.5402 86.2994 19.5402ZM86.7794 17.3802C87.5954 17.3802 88.3234 17.1882 88.9634 16.8042C89.6034 16.4042 90.1074 15.8682 90.4754 15.1962C90.8434 14.5082 91.0274 13.7402 91.0274 12.8922C91.0274 12.0282 90.8434 11.2602 90.4754 10.5882C90.1074 9.9002 89.6034 9.3642 88.9634 8.9802C88.3234 8.5802 87.5954 8.3802 86.7794 8.3802C85.9794 8.3802 85.2514 8.5802 84.5954 8.9802C83.9554 9.3642 83.4434 9.9002 83.0594 10.5882C82.6914 11.2602 82.5074 12.0282 82.5074 12.8922C82.5074 13.7402 82.6914 14.5082 83.0594 15.1962C83.4434 15.8682 83.9554 16.4042 84.5954 16.8042C85.2514 17.1882 85.9794 17.3802 86.7794 17.3802ZM99.4468 19.4682C99.0948 19.4682 98.7987 19.3562 98.5587 19.1322C98.3347 18.8922 98.2227 18.5962 98.2227 18.2442V7.54019C98.2227 7.17219 98.3347 6.8762 98.5587 6.6522C98.7987 6.4282 99.0948 6.3162 99.4468 6.3162C99.8148 6.3162 100.111 6.4282 100.335 6.6522C100.559 6.8762 100.671 7.17219 100.671 7.54019V7.80419C101.167 7.3082 101.767 6.9162 102.471 6.6282C103.175 6.3402 103.935 6.1962 104.751 6.1962C105.855 6.1962 106.839 6.4362 107.703 6.9162C108.583 7.3802 109.271 8.0682 109.767 8.9802C110.279 9.8922 110.535 11.0122 110.535 12.3402V18.2442C110.535 18.5962 110.415 18.8922 110.175 19.1322C109.951 19.3562 109.663 19.4682 109.311 19.4682C108.959 19.4682 108.663 19.3562 108.423 19.1322C108.199 18.8922 108.087 18.5962 108.087 18.2442V12.3402C108.087 10.9802 107.719 9.98819 106.983 9.36419C106.263 8.72419 105.359 8.4042 104.271 8.4042C103.599 8.4042 102.991 8.54019 102.447 8.81219C101.903 9.0842 101.471 9.4522 101.151 9.91619C100.831 10.3642 100.671 10.8842 100.671 11.4762V18.2442C100.671 18.5962 100.559 18.8922 100.335 19.1322C100.111 19.3562 99.8148 19.4682 99.4468 19.4682ZM121.254 19.5402C120.054 19.5402 118.99 19.2602 118.062 18.7002C117.15 18.1242 116.43 17.3402 115.902 16.3482C115.374 15.3402 115.11 14.1882 115.11 12.8922C115.11 11.5802 115.39 10.4282 115.95 9.4362C116.526 8.4282 117.31 7.6442 118.302 7.0842C119.294 6.50819 120.438 6.2202 121.734 6.2202C123.014 6.2202 124.15 6.50819 125.142 7.0842C126.134 7.6442 126.91 8.4282 127.47 9.4362C128.046 10.4282 128.334 11.5802 128.334 12.8922V18.0762C128.334 19.3402 128.054 20.4842 127.494 21.5082C126.934 22.5482 126.15 23.3722 125.142 23.9802C124.15 24.5882 122.998 24.8922 121.686 24.8922C120.55 24.8922 119.486 24.6682 118.494 24.2202C117.502 23.7722 116.662 23.1162 115.974 22.2522C115.766 21.9802 115.686 21.7002 115.734 21.4122C115.798 21.1242 115.958 20.8922 116.214 20.7162C116.502 20.5242 116.798 20.4602 117.102 20.5242C117.422 20.5882 117.678 20.7482 117.87 21.0042C118.302 21.5482 118.846 21.9722 119.502 22.2762C120.158 22.5802 120.902 22.7322 121.734 22.7322C122.502 22.7322 123.206 22.5482 123.846 22.1802C124.502 21.8122 125.022 21.2682 125.406 20.5482C125.79 19.8282 125.982 18.9482 125.982 17.9082V16.7322C125.486 17.5962 124.83 18.2842 124.014 18.7962C123.198 19.2922 122.278 19.5402 121.254 19.5402ZM121.734 17.3802C122.566 17.3802 123.302 17.1882 123.942 16.8042C124.582 16.4202 125.078 15.8922 125.43 15.2202C125.798 14.5482 125.982 13.7722 125.982 12.8922C125.982 12.0122 125.798 11.2362 125.43 10.5642C125.078 9.8762 124.582 9.3402 123.942 8.9562C123.302 8.5722 122.566 8.3802 121.734 8.3802C120.902 8.3802 120.166 8.5722 119.526 8.9562C118.886 9.3402 118.382 9.8762 118.014 10.5642C117.646 11.2362 117.462 12.0122 117.462 12.8922C117.462 13.7722 117.646 14.5482 118.014 15.2202C118.382 15.8922 118.886 16.4202 119.526 16.8042C120.166 17.1882 120.902 17.3802 121.734 17.3802Z" fill="white"/>
<path d="M1.06 19.084L0.565021 19.579L1.06 19.084ZM1.06 1.06L1.53762 1.57174L1.54644 1.56351L1.55497 1.55497L1.06 1.06ZM13.684 1.036L13.189 1.53097L13.1982 1.54014L13.2077 1.54895L13.684 1.036ZM13.684 2.692L14.1603 3.20496V3.20495L13.684 2.692ZM3.196 3.004V2.304H2.496V3.004H3.196ZM3.196 8.836H2.496V9.536H3.196V8.836ZM10.972 9.172L10.477 9.667L10.4862 9.6761L10.4957 9.685L10.972 9.172ZM10.972 10.828L11.4483 11.341L11.4578 11.3321L11.467 11.323L10.972 10.828ZM3.196 11.14V10.44H2.496V11.14H3.196ZM3.196 17.14H2.496V17.84H3.196V17.14ZM13.684 17.452L14.1603 16.939L13.684 17.452ZM13.684 19.132L14.1603 19.645L14.1698 19.6361L14.179 19.627L13.684 19.132ZM1.948 18.744C1.77396 18.744 1.65836 18.6924 1.55497 18.589L0.565021 19.579C0.941641 19.9556 1.41804 20.144 1.948 20.144V18.744ZM1.55497 18.589C1.45159 18.4856 1.4 18.37 1.4 18.196H0C0 18.726 0.188411 19.2024 0.565021 19.579L1.55497 18.589ZM1.4 18.196V1.948H0V18.196H1.4ZM1.4 1.948C1.4 1.7481 1.45737 1.64664 1.53762 1.57174L0.582381 0.54826C0.182631 0.92136 0 1.4119 0 1.948H1.4ZM1.55497 1.55497C1.65836 1.45159 1.77396 1.4 1.948 1.4V0C1.41804 0 0.941641 0.188411 0.565021 0.56502L1.55497 1.55497ZM1.948 1.4H12.796V0H1.948V1.4ZM12.796 1.4C13.0108 1.4 13.1176 1.45954 13.189 1.53097L14.179 0.54102C13.8024 0.164457 13.3172 0 12.796 0V1.4ZM13.2077 1.54895C13.267 1.60399 13.32 1.68629 13.32 1.876H14.72C14.72 1.36171 14.5491 0.88401 14.1603 0.52304L13.2077 1.54895ZM13.32 1.876C13.32 2.03882 13.274 2.11743 13.2077 2.17904L14.1603 3.20495C14.542 2.85057 14.72 2.38518 14.72 1.876H13.32ZM13.2077 2.17904C13.1386 2.24319 13.0254 2.304 12.796 2.304V3.704C13.3026 3.704 13.7814 3.55681 14.1603 3.20496L13.2077 2.17904ZM12.796 2.304H3.196V3.704H12.796V2.304ZM2.496 3.004V8.836H3.896V3.004H2.496ZM3.196 9.536H10.084V8.136H3.196V9.536ZM10.084 9.536C10.2988 9.536 10.4056 9.5955 10.477 9.667L11.467 8.67702C11.0904 8.30046 10.6052 8.136 10.084 8.136V9.536ZM10.4957 9.685C10.5621 9.7466 10.608 9.8252 10.608 9.988H12.008C12.008 9.4788 11.83 9.01343 11.4483 8.65904L10.4957 9.685ZM10.608 9.988C10.608 10.1508 10.5612 10.2489 10.477 10.333L11.467 11.323C11.8308 10.9591 12.008 10.4972 12.008 9.988H10.608ZM10.4957 10.315C10.4266 10.3792 10.3134 10.44 10.084 10.44V11.84C10.5906 11.84 11.0694 11.6928 11.4483 11.341L10.4957 10.315ZM10.084 10.44H3.196V11.84H10.084V10.44ZM2.496 11.14V17.14H3.896V11.14H2.496ZM3.196 17.84H12.796V16.44H3.196V17.84ZM12.796 17.84C13.0254 17.84 13.1386 17.9008 13.2077 17.965L14.1603 16.939C13.7814 16.5872 13.3026 16.44 12.796 16.44V17.84ZM13.2077 17.965C13.274 18.0266 13.32 18.1052 13.32 18.268H14.72C14.72 17.7588 14.542 17.2934 14.1603 16.939L13.2077 17.965ZM13.32 18.268C13.32 18.457 13.2666 18.5595 13.189 18.637L14.179 19.627C14.5494 19.2565 14.72 18.783 14.72 18.268H13.32ZM13.2077 18.619C13.1386 18.6832 13.0254 18.744 12.796 18.744V20.144C13.3026 20.144 13.7814 19.9968 14.1603 19.645L13.2077 18.619ZM12.796 18.744H1.948V20.144H12.796V18.744ZM20.7927 18.676L20.4162 19.2662L20.4235 19.2707L20.7927 18.676ZM18.5847 16.3L17.9645 16.6249L17.9709 16.6366L18.5847 16.3ZM18.6567 9.484L18.0531 9.12948L18.0489 9.1367L18.6567 9.484ZM21.0327 7.108L21.3842 7.71336L21.3872 7.7116L21.0327 7.108ZM27.7767 7.108L27.418 7.70914L27.4252 7.71335L27.7767 7.108ZM30.1287 9.484L29.5209 9.8313L29.5251 9.8385L30.1287 9.484ZM30.6567 19.132L31.1517 19.627L30.6567 19.132ZM28.9047 19.132L28.393 19.6096L28.4094 19.6273L28.4271 19.6437L28.9047 19.132ZM28.5687 17.356H29.2687V15.4226L28.0309 16.9079L28.5687 17.356ZM26.5287 18.964L26.8366 19.5927L26.8417 19.5901L26.5287 18.964ZM26.6007 16.804L26.9609 17.4043L26.9717 17.3976L26.6007 16.804ZM28.1127 15.196L28.7267 15.5322L28.7299 15.5262L28.1127 15.196ZM28.1127 10.588L27.4954 10.9182L27.4987 10.9242L28.1127 10.588ZM26.6007 8.98L26.2296 9.5737L26.2406 9.5802L26.6007 8.98ZM22.2327 8.98L22.5929 9.5803L22.5971 9.5777L22.2327 8.98ZM20.6967 10.588L20.0854 10.2468L20.0827 10.2518L20.6967 10.588ZM20.6967 15.196L20.0794 15.5262L20.0841 15.5348L20.0889 15.5433L20.6967 15.196ZM22.2327 16.804L21.8617 17.3976L21.8703 17.403L21.8791 17.4081L22.2327 16.804ZM23.9367 18.84C22.8897 18.84 21.9713 18.5836 21.1619 18.0813L20.4235 19.2707C21.4701 19.9204 22.6477 20.24 23.9367 20.24V18.84ZM21.1692 18.0859C20.3431 17.5589 19.6876 16.8553 19.1985 15.9634L17.9709 16.6366C18.5698 17.7287 19.3863 18.6091 20.4162 19.2661L21.1692 18.0859ZM19.2048 15.9752C18.7349 15.0781 18.4927 14.0556 18.4927 12.892H17.0927C17.0927 14.2564 17.3785 15.5059 17.9646 16.6248L19.2048 15.9752ZM18.4927 12.892C18.4927 11.7387 18.7542 10.7243 19.2645 9.8313L18.0489 9.1367C17.4072 10.2597 17.0927 11.5173 17.0927 12.892H18.4927ZM19.2603 9.8385C19.7925 8.93235 20.4985 8.22763 21.3842 7.71335L20.6812 6.50265C19.5829 7.14037 18.7049 8.01965 18.0531 9.1295L19.2603 9.8385ZM21.3872 7.7116C22.2804 7.187 23.2846 6.92 24.4167 6.92V5.52C23.0528 5.52 21.801 5.845 20.6782 6.5044L21.3872 7.7116ZM24.4167 6.92C25.5489 6.92 26.5431 7.187 27.418 7.7091L28.1354 6.5069C27.0263 5.845 25.7805 5.52 24.4167 5.52V6.92ZM27.4252 7.71335C28.3092 8.22663 29.0053 8.92903 29.5209 9.8313L30.7365 9.1367C30.1 8.02297 29.2282 7.14137 28.1282 6.50265L27.4252 7.71335ZM29.5251 9.8385C30.0489 10.7303 30.3167 11.7422 30.3167 12.892H31.7167C31.7167 11.5138 31.3925 10.2537 30.7323 9.1295L29.5251 9.8385ZM30.3167 12.892V18.244H31.7167V12.892H30.3167ZM30.3167 18.244C30.3167 18.418 30.2651 18.5336 30.1617 18.637L31.1517 19.627C31.5283 19.2504 31.7167 18.774 31.7167 18.244H30.3167ZM30.1617 18.637C30.0842 18.7146 29.9817 18.768 29.7927 18.768V20.168C30.3077 20.168 30.7812 19.9974 31.1517 19.627L30.1617 18.637ZM29.7927 18.768C29.604 18.768 29.4828 18.714 29.3823 18.6203L28.4271 19.6437C28.8066 19.998 29.2774 20.168 29.7927 20.168V18.768ZM29.4164 18.6544C29.3227 18.5539 29.2687 18.4327 29.2687 18.244H27.8687C27.8687 18.7593 28.0387 19.2301 28.393 19.6096L29.4164 18.6544ZM29.2687 18.244V17.356H27.8687V18.244H29.2687ZM28.0309 16.9079C27.5342 17.504 26.9313 17.9801 26.2156 18.3379L26.8417 19.5901C27.7261 19.1479 28.4832 18.552 29.1065 17.8041L28.0309 16.9079ZM26.2208 18.3354C25.5403 18.6687 24.7828 18.84 23.9367 18.84V20.24C24.9786 20.24 25.9491 20.0273 26.8366 19.5926L26.2208 18.3354ZM24.4167 18.08C25.3473 18.08 26.202 17.8595 26.9608 17.4042L26.2406 16.2038C25.7194 16.5165 25.1181 16.68 24.4167 16.68V18.08ZM26.9717 17.3976C27.715 16.933 28.302 16.3077 28.7267 15.5322L27.4987 14.8598C27.1874 15.4283 26.7664 15.875 26.2297 16.2104L26.9717 17.3976ZM28.7299 15.5262C29.1569 14.7279 29.3647 13.8449 29.3647 12.892H27.9647C27.9647 13.6351 27.8045 14.2881 27.4954 14.8658L28.7299 15.5262ZM29.3647 12.892C29.3647 11.9257 29.158 11.0394 28.7267 10.2518L27.4987 10.9242C27.8034 11.4806 27.9647 12.1303 27.9647 12.892H29.3647ZM28.7299 10.2578C28.3051 9.4635 27.7144 8.8319 26.9608 8.37975L26.2406 9.5802C26.767 9.8961 27.1843 10.3365 27.4954 10.9182L28.7299 10.2578ZM26.9717 8.3864C26.2114 7.91122 25.3528 7.68 24.4167 7.68V9.08C25.1126 9.08 25.71 9.24878 26.2297 9.5736L26.9717 8.3864ZM24.4167 7.68C23.4937 7.68 22.6387 7.91258 21.8683 8.38234L22.5971 9.5777C23.1387 9.24742 23.7397 9.08 24.4167 9.08V7.68ZM21.8726 8.37975C21.1218 8.83023 20.5256 9.4582 20.0855 10.2468L21.3079 10.9292C21.6358 10.3418 22.0636 9.8978 22.5928 9.5802L21.8726 8.37975ZM20.0827 10.2518C19.6514 11.0394 19.4447 11.9257 19.4447 12.892H20.8447C20.8447 12.1303 21.006 11.4806 21.3107 10.9242L20.0827 10.2518ZM19.4447 12.892C19.4447 13.8449 19.6525 14.7279 20.0794 15.5262L21.3139 14.8658C21.0049 14.2881 20.8447 13.6351 20.8447 12.892H19.4447ZM20.0889 15.5433C20.5288 16.313 21.1211 16.9347 21.8617 17.3976L22.6037 16.2104C22.0643 15.8733 21.6326 15.423 21.3045 14.8487L20.0889 15.5433ZM21.8791 17.4081C22.6481 17.8582 23.4992 18.08 24.4167 18.08V16.68C23.7342 16.68 23.1293 16.5178 22.5863 16.1999L21.8791 17.4081ZM37.516 19.036L37.2714 19.6919L37.2781 19.6944L37.2848 19.6967L37.516 19.036ZM35.308 17.716L34.7973 18.1948L34.8051 18.203L34.813 18.211L35.308 17.716ZM34.996 16.852L34.303 16.753L34.301 16.7676L34.2995 16.7823L34.996 16.852ZM35.476 16.036L35.9012 16.5921L35.9073 16.5874L35.9133 16.5826L35.476 16.036ZM36.412 15.724L36.3028 16.4154L36.3225 16.4185L36.3424 16.4205L36.412 15.724ZM37.228 16.132L37.7497 15.6652L37.7448 15.6598L37.7397 15.6544L37.228 16.132ZM38.524 16.996L38.2318 17.6321L38.242 17.6368L38.2524 17.6411L38.524 16.996ZM42.652 16.924L42.2862 16.3271L42.2775 16.3326L42.652 16.924ZM43.42 15.748L44.1196 15.7713L43.42 15.748ZM42.724 14.5L42.3009 15.0578L42.3101 15.0645L42.724 14.5ZM40.156 13.636L40.02 14.3228L40.0323 14.325L40.156 13.636ZM36.628 12.196L36.1629 12.7192L36.1687 12.7242L36.628 12.196ZM36.268 7.828L36.786 8.29892L36.7929 8.29113L36.268 7.828ZM38.116 6.628L38.3416 7.29077L38.3541 7.28626L38.116 6.628ZM43.276 6.724L43.5425 6.07672L43.276 6.724ZM45.22 8.116L44.6763 8.55686L44.6846 8.56706L44.6932 8.57695L45.22 8.116ZM45.532 8.932L46.2308 8.97311L46.2309 8.97083L45.532 8.932ZM45.124 9.628L45.5206 10.2048L45.5325 10.1967L45.544 10.188L45.124 9.628ZM44.212 9.796L44.0868 10.4847L44.212 9.796ZM43.324 9.364L42.8392 9.869L42.8464 9.8757L43.324 9.364ZM42.028 8.572L41.8205 9.24055L42.028 8.572ZM38.62 8.716L38.3151 8.08583L38.307 8.0899L38.62 8.716ZM38.116 10.564L37.5158 10.9241L37.5301 10.9481L37.5464 10.9709L38.116 10.564ZM39.028 11.188L38.7523 11.8314L38.7621 11.8356L38.7721 11.8395L39.028 11.188ZM40.996 11.716L40.8563 12.4019L40.8622 12.4031L40.996 11.716ZM44.74 13.228L44.257 13.7346L44.263 13.7404L44.2691 13.746L44.74 13.228ZM45.196 17.596L44.6159 17.204L44.6087 17.2151L45.196 17.596ZM43.468 19.012L43.1763 18.3756L43.1713 18.378L43.468 19.012ZM40.636 18.84C39.5868 18.84 38.6258 18.6828 37.7473 18.3753L37.2848 19.6967C38.3262 20.0612 39.4452 20.24 40.636 20.24V18.84ZM37.7606 18.3801C36.8795 18.0516 36.2398 17.6578 35.803 17.221L34.813 18.211C35.4322 18.8302 36.2645 19.3164 37.2714 19.6919L37.7606 18.3801ZM35.8187 17.2372C35.7027 17.1135 35.6826 17.0208 35.6925 16.9217L34.2995 16.7823C34.2454 17.3232 34.4333 17.8065 34.7973 18.1948L35.8187 17.2372ZM35.689 16.951C35.7108 16.7983 35.7735 16.6898 35.9012 16.5921L35.0508 15.4799C34.6346 15.7982 34.3772 16.2337 34.303 16.753L35.689 16.951ZM35.9133 16.5826C36.1331 16.4068 36.2519 16.4074 36.3028 16.4154L36.5212 15.0326C35.9641 14.9446 35.459 15.1532 35.0387 15.4894L35.9133 16.5826ZM36.3424 16.4205C36.4895 16.4352 36.6055 16.491 36.7163 16.6096L37.7397 15.6544C37.4025 15.293 36.9745 15.0768 36.4817 15.0275L36.3424 16.4205ZM36.7063 16.5988C37.0693 17.0044 37.5986 17.3412 38.2318 17.6321L38.8163 16.3599C38.2654 16.1068 37.9308 15.8676 37.7497 15.6652L36.7063 16.5988ZM38.2524 17.6411C38.9558 17.9373 39.7215 18.08 40.54 18.08V16.68C39.8865 16.68 39.3082 16.5667 38.7956 16.3509L38.2524 17.6411ZM40.54 18.08C41.5249 18.08 42.3842 17.9222 43.0265 17.5154L42.2775 16.3326C41.9598 16.5338 41.4111 16.68 40.54 16.68V18.08ZM43.0178 17.5208C43.6657 17.1237 44.0941 16.5383 44.1196 15.7713L42.7204 15.7247C42.714 15.9177 42.6303 16.1163 42.2862 16.3272L43.0178 17.5208ZM44.1196 15.7713C44.1452 15.004 43.7539 14.3872 43.138 13.9355L42.3101 15.0645C42.6541 15.3168 42.7268 15.532 42.7204 15.7247L44.1196 15.7713ZM43.1471 13.9423C42.5398 13.4816 41.5372 13.1727 40.2797 12.947L40.0323 14.325C41.2708 14.5473 41.9802 14.8144 42.3009 15.0577L43.1471 13.9423ZM40.292 12.9493C38.723 12.6386 37.688 12.1901 37.0873 11.6678L36.1687 12.7242C37.0401 13.4819 38.357 13.9934 40.02 14.3227L40.292 12.9493ZM37.0931 11.6728C36.516 11.1599 36.248 10.5636 36.248 9.844H34.848C34.848 10.9804 35.3 11.9521 36.163 12.7192L37.0931 11.6728ZM36.248 9.844C36.248 9.17537 36.4399 8.6795 36.786 8.29887L35.7501 7.35713C35.1361 8.0325 34.848 8.88063 34.848 9.844H36.248ZM36.7929 8.29113C37.1847 7.84711 37.6938 7.51119 38.3416 7.29065L37.8904 5.96534C37.0342 6.25681 36.3113 6.72089 35.7431 7.36486L36.7929 8.29113ZM38.3541 7.28626C39.0282 7.04244 39.7315 6.92 40.468 6.92V5.52C39.5725 5.52 38.7078 5.66955 37.8779 5.96974L38.3541 7.28626ZM40.468 6.92C41.4502 6.92 42.2929 7.07621 43.0095 7.37127L43.5425 6.07672C42.6271 5.69978 41.5978 5.52 40.468 5.52V6.92ZM43.0095 7.37127C43.7345 7.6698 44.2809 8.06919 44.6763 8.55686L45.7637 7.67514C45.1992 6.97881 44.4495 6.4502 43.5425 6.07672L43.0095 7.37127ZM44.6932 8.57695C44.8199 8.72173 44.8371 8.82021 44.8331 8.89317L46.2309 8.97083C46.2589 8.46779 46.0681 8.02226 45.7468 7.65505L44.6932 8.57695ZM44.8332 8.89089C44.8315 8.92069 44.8271 8.97567 44.704 9.068L45.544 10.188C45.9329 9.8963 46.2006 9.4873 46.2308 8.97311L44.8332 8.89089ZM44.7274 9.05117C44.6471 9.10641 44.5372 9.14365 44.3372 9.10729L44.0868 10.4847C44.5908 10.5763 45.0889 10.5016 45.5206 10.2048L44.7274 9.05117ZM44.3372 9.10729C44.1049 9.06505 43.9348 8.97653 43.8016 8.85226L42.8464 9.8757C43.1932 10.1995 43.6151 10.399 44.0868 10.4847L44.3372 9.10729ZM43.8088 8.85903C43.3415 8.4104 42.8172 8.08398 42.2355 7.90345L41.8205 9.24055C42.1668 9.34802 42.5066 9.5496 42.8392 9.869L43.8088 8.85903ZM42.2355 7.90345C41.6899 7.73413 41.0815 7.656 40.42 7.656V9.056C40.9745 9.056 41.4381 9.12187 41.8205 9.24055L42.2355 7.90345ZM40.42 7.656C39.6388 7.656 38.9288 7.78895 38.3151 8.08589L38.9249 9.34611C39.3032 9.16305 39.7932 9.056 40.42 9.056V7.656ZM38.307 8.0899C37.9875 8.24966 37.7042 8.46863 37.5017 8.76566C37.2953 9.06829 37.2 9.41244 37.2 9.772H38.6C38.6 9.6676 38.6247 9.6037 38.6584 9.5543C38.6958 9.4994 38.7726 9.42234 38.9331 9.3421L38.307 8.0899ZM37.2 9.772C37.2 10.183 37.3045 10.5721 37.5158 10.9241L38.7163 10.2039C38.6395 10.0759 38.6 9.937 38.6 9.772H37.2ZM37.5464 10.9709C37.8185 11.3518 38.2652 11.6227 38.7523 11.8314L39.3038 10.5446C38.8948 10.3693 38.7335 10.2242 38.6856 10.1571L37.5464 10.9709ZM38.7721 11.8395C39.2767 12.0378 39.9795 12.2233 40.8563 12.4019L41.1357 11.0301C40.2845 10.8567 39.6753 10.6902 39.284 10.5365L38.7721 11.8395ZM40.8622 12.4031C42.6419 12.7496 43.7208 13.2234 44.257 13.7346L45.2231 12.7214C44.3832 11.9206 42.9662 11.3864 41.1298 11.0289L40.8622 12.4031ZM44.2691 13.746C44.8285 14.2545 45.096 14.859 45.096 15.604H46.496C46.496 14.461 46.0595 13.4815 45.2109 12.71L44.2691 13.746ZM45.096 15.604C45.096 16.2048 44.9353 16.7315 44.616 17.2041L45.776 17.9879C46.2567 17.2765 46.496 16.4752 46.496 15.604H45.096ZM44.6087 17.2151C44.3102 17.6753 43.8476 18.068 43.1764 18.3757L43.7597 19.6483C44.6244 19.252 45.3138 18.7007 45.7833 17.9769L44.6087 17.2151ZM43.1713 18.378C42.5397 18.6736 41.7051 18.84 40.636 18.84V20.24C41.839 20.24 42.8923 20.0544 43.7648 19.646L43.1713 18.378ZM51.8673 25.06L51.5776 25.6973L51.5845 25.7004L51.5915 25.7034L51.8673 25.06ZM51.2913 23.548L51.9261 23.8433L51.9309 23.8323L51.2913 23.548ZM53.6913 18.148L54.3309 18.4323L54.4688 18.122L54.3105 17.8217L53.6913 18.148ZM48.2913 7.9L47.6718 8.22602L47.672 8.22632L48.2913 7.9ZM48.2193 7.036L47.5796 6.7517L47.5757 6.76054L47.572 6.76947L48.2193 7.036ZM48.8673 6.412L48.5956 5.76685L48.8673 6.412ZM49.7313 6.388L49.4647 7.03527L49.4813 7.04211L49.4983 7.04809L49.7313 6.388ZM50.3553 6.988L49.7226 7.28766L49.7262 7.29508L49.7298 7.30242L50.3553 6.988ZM54.7473 15.724L54.1218 16.0384L54.7869 17.3612L55.3871 16.0078L54.7473 15.724ZM58.6113 7.012L57.9793 6.71105L57.9752 6.71957L57.9714 6.72819L58.6113 7.012ZM60.1233 6.436L60.3955 5.79112L60.3936 5.79029L60.1233 6.436ZM60.7233 7.948L60.086 7.65833L60.0837 7.66353L60.7233 7.948ZM53.3793 24.46L52.7397 24.1755L52.7327 24.1913L52.7265 24.2073L53.3793 24.46ZM52.4433 24.504C52.4144 24.504 52.321 24.4929 52.143 24.4166L51.5915 25.7034C51.8616 25.8191 52.1521 25.904 52.4433 25.904V24.504ZM52.1569 24.4227C51.8997 24.3058 51.8558 24.2097 51.8494 24.1928C51.8442 24.1792 51.8127 24.0868 51.926 23.8432L50.6566 23.2528C50.4498 23.6972 50.3543 24.2008 50.5411 24.6912C50.7267 25.1783 51.1309 25.4942 51.5776 25.6973L52.1569 24.4227ZM51.9309 23.8323L54.3309 18.4323L53.0516 17.8637L50.6516 23.2637L51.9309 23.8323ZM54.3105 17.8217L48.9105 7.57368L47.672 8.22632L53.072 18.4743L54.3105 17.8217ZM48.9107 7.57398C48.8293 7.41932 48.8472 7.34949 48.8665 7.30252L47.572 6.76947C47.3673 7.26651 47.4332 7.77268 47.6718 8.22602L48.9107 7.57398ZM48.8589 7.3203C48.911 7.20318 48.9906 7.1196 49.1389 7.05714L48.5956 5.76685C48.1359 5.9604 47.7835 6.29281 47.5796 6.7517L48.8589 7.3203ZM49.1389 7.05714C49.2938 6.99193 49.3869 7.00321 49.4647 7.03527L49.9978 5.74072C49.5317 5.54879 49.0487 5.57607 48.5956 5.76685L49.1389 7.05714ZM49.4983 7.04809C49.5651 7.07167 49.6442 7.12197 49.7226 7.28766L50.9879 6.68834C50.7784 6.24603 50.4414 5.89633 49.9642 5.72791L49.4983 7.04809ZM49.7298 7.30242L54.1218 16.0384L55.3727 15.4096L50.9807 6.67358L49.7298 7.30242ZM55.3871 16.0078L59.2511 7.29581L57.9714 6.72819L54.1074 15.4402L55.3871 16.0078ZM59.2433 7.31295C59.3557 7.07693 59.45 7.029 59.4785 7.01814C59.5073 7.00717 59.6104 6.98019 59.853 7.08171L60.3936 5.79029C59.9481 5.60381 59.4553 5.52883 58.9801 5.70986C58.5046 5.891 58.1869 6.27507 57.9793 6.71105L59.2433 7.31295ZM59.851 7.08087C60.1149 7.19231 60.1575 7.28721 60.1626 7.30019C60.167 7.31126 60.2013 7.40471 60.086 7.65834L61.3605 8.23766C61.5652 7.78729 61.6595 7.27674 61.4639 6.78381C61.2691 6.29279 60.8516 5.98369 60.3955 5.79112L59.851 7.08087ZM60.0837 7.66353L52.7397 24.1755L54.0189 24.7445L61.3628 8.23247L60.0837 7.66353ZM52.7265 24.2073C52.6608 24.3769 52.597 24.4451 52.5657 24.47C52.5442 24.4871 52.5152 24.504 52.4433 24.504V25.904C52.8033 25.904 53.1463 25.7969 53.4368 25.566C53.7175 25.3429 53.9057 25.0391 54.0321 24.7127L52.7265 24.2073ZM64.8048 19.084L64.293 19.5616L64.3013 19.5704L64.3098 19.579L64.8048 19.084ZM64.8288 1.06L64.3338 0.56502L64.8288 1.06ZM66.9408 16.948H66.2408V17.648H66.9408V16.948ZM76.5168 17.308L77.0117 16.813L76.5168 17.308ZM76.5168 19.084L77.0117 19.579L76.5168 19.084ZM65.6928 18.744C65.5187 18.744 65.4031 18.6924 65.2997 18.589L64.3098 19.579C64.6864 19.9556 65.1628 20.144 65.6928 20.144V18.744ZM65.3165 18.6064C65.2227 18.5059 65.1688 18.3847 65.1688 18.196H63.7688C63.7688 18.7113 63.9388 19.1821 64.293 19.5616L65.3165 18.6064ZM65.1688 18.196V1.948H63.7688V18.196H65.1688ZM65.1688 1.948C65.1688 1.77396 65.2204 1.65836 65.3237 1.55497L64.3338 0.56502C63.9572 0.94164 63.7688 1.41804 63.7688 1.948H65.1688ZM65.3237 1.55497C65.434 1.44475 65.5445 1.4 65.6928 1.4V0C65.169 0 64.7036 0.195247 64.3338 0.56502L65.3237 1.55497ZM65.6928 1.4C65.8668 1.4 65.9824 1.45159 66.0858 1.55497L67.0757 0.56502C66.6991 0.188411 66.2227 0 65.6928 0V1.4ZM66.0858 1.55497C66.1892 1.65836 66.2408 1.77396 66.2408 1.948H67.6408C67.6408 1.41804 67.4524 0.94164 67.0757 0.56502L66.0858 1.55497ZM66.2408 1.948V16.948H67.6408V1.948H66.2408ZM66.9408 17.648H75.6288V16.248H66.9408V17.648ZM75.6288 17.648C75.8028 17.648 75.9184 17.6996 76.0218 17.803L77.0117 16.813C76.6351 16.4364 76.1587 16.248 75.6288 16.248V17.648ZM76.0218 17.803C76.1252 17.9064 76.1768 18.022 76.1768 18.196H77.5768C77.5768 17.666 77.3884 17.1896 77.0117 16.813L76.0218 17.803ZM76.1768 18.196C76.1768 18.37 76.1252 18.4856 76.0218 18.589L77.0117 19.579C77.3884 19.2024 77.5768 18.726 77.5768 18.196H76.1768ZM76.0218 18.589C75.9184 18.6924 75.8028 18.744 75.6288 18.744V20.144C76.1587 20.144 76.6351 19.9556 77.0117 19.579L76.0218 18.589ZM75.6288 18.744H65.6928V20.144H75.6288V18.744ZM83.1552 18.676L82.7787 19.2662L82.786 19.2707L83.1552 18.676ZM80.9472 16.3L80.327 16.6249L80.3334 16.6366L80.9472 16.3ZM81.0192 9.484L80.4156 9.12948L80.4114 9.1367L81.0192 9.484ZM83.3952 7.108L83.7467 7.71336L83.7497 7.7116L83.3952 7.108ZM90.1392 7.108L89.7804 7.70914L89.7877 7.71335L90.1392 7.108ZM92.4912 9.484L91.8834 9.8313L91.8876 9.8385L92.4912 9.484ZM93.0192 19.132L93.5142 19.627L93.0192 19.132ZM91.2672 19.132L90.7555 19.6096L90.7719 19.6273L90.7896 19.6437L91.2672 19.132ZM90.9312 17.356H91.6312V15.4226L90.3934 16.9079L90.9312 17.356ZM88.8912 18.964L89.1991 19.5927L89.2042 19.5901L88.8912 18.964ZM88.9632 16.804L89.3234 17.4043L89.3342 17.3976L88.9632 16.804ZM90.4752 15.196L91.0892 15.5322L91.0924 15.5262L90.4752 15.196ZM90.4752 10.588L89.8579 10.9182L89.8612 10.9242L90.4752 10.588ZM88.9632 8.98L88.5921 9.5737L88.603 9.5802L88.9632 8.98ZM84.5952 8.98L84.9554 9.5803L84.9596 9.5777L84.5952 8.98ZM83.0592 10.588L82.4479 10.2468L82.4452 10.2518L83.0592 10.588ZM83.0592 15.196L82.4419 15.5262L82.4466 15.5348L82.4514 15.5433L83.0592 15.196ZM84.5952 16.804L84.2242 17.3976L84.2328 17.403L84.2416 17.4081L84.5952 16.804ZM86.2992 18.84C85.2522 18.84 84.3338 18.5836 83.5244 18.0813L82.786 19.2707C83.8326 19.9204 85.0102 20.24 86.2992 20.24V18.84ZM83.5317 18.0859C82.7056 17.5589 82.0501 16.8553 81.561 15.9634L80.3334 16.6366C80.9323 17.7287 81.7487 18.6091 82.7787 19.2661L83.5317 18.0859ZM81.5673 15.9752C81.0974 15.0781 80.8552 14.0556 80.8552 12.892H79.4552C79.4552 14.2564 79.741 15.5059 80.3271 16.6248L81.5673 15.9752ZM80.8552 12.892C80.8552 11.7387 81.1167 10.7243 81.627 9.8313L80.4114 9.1367C79.7697 10.2597 79.4552 11.5173 79.4552 12.892H80.8552ZM81.6228 9.8385C82.155 8.93235 82.861 8.22763 83.7467 7.71335L83.0437 6.50265C81.9454 7.14037 81.0674 8.01965 80.4156 9.1295L81.6228 9.8385ZM83.7497 7.7116C84.6429 7.187 85.6471 6.92 86.7792 6.92V5.52C85.4153 5.52 84.1635 5.845 83.0407 6.5044L83.7497 7.7116ZM86.7792 6.92C87.9114 6.92 88.9056 7.187 89.7805 7.7091L90.4979 6.5069C89.3888 5.845 88.143 5.52 86.7792 5.52V6.92ZM89.7877 7.71335C90.6717 8.22663 91.3678 8.92903 91.8834 9.8313L93.099 9.1367C92.4625 8.02297 91.5907 7.14137 90.4907 6.50265L89.7877 7.71335ZM91.8876 9.8385C92.4114 10.7303 92.6792 11.7422 92.6792 12.892H94.0792C94.0792 11.5138 93.755 10.2537 93.0948 9.1295L91.8876 9.8385ZM92.6792 12.892V18.244H94.0792V12.892H92.6792ZM92.6792 18.244C92.6792 18.418 92.6276 18.5336 92.5242 18.637L93.5142 19.627C93.8908 19.2504 94.0792 18.774 94.0792 18.244H92.6792ZM92.5242 18.637C92.4467 18.7146 92.3442 18.768 92.1552 18.768V20.168C92.6702 20.168 93.1437 19.9974 93.5142 19.627L92.5242 18.637ZM92.1552 18.768C91.9665 18.768 91.8453 18.714 91.7448 18.6203L90.7896 19.6437C91.1691 19.998 91.6399 20.168 92.1552 20.168V18.768ZM91.7789 18.6544C91.6851 18.5539 91.6312 18.4327 91.6312 18.244H90.2312C90.2312 18.7593 90.4012 19.2301 90.7555 19.6096L91.7789 18.6544ZM91.6312 18.244V17.356H90.2312V18.244H91.6312ZM90.3934 16.9079C89.8967 17.504 89.2938 17.9801 88.5781 18.3379L89.2042 19.5901C90.0886 19.1479 90.8457 18.552 91.469 17.8041L90.3934 16.9079ZM88.5833 18.3354C87.9028 18.6687 87.1453 18.84 86.2992 18.84V20.24C87.3411 20.24 88.3116 20.0273 89.1991 19.5926L88.5833 18.3354ZM86.7792 18.08C87.7098 18.08 88.5645 17.8595 89.3233 17.4042L88.603 16.2038C88.0819 16.5165 87.4806 16.68 86.7792 16.68V18.08ZM89.3342 17.3976C90.0775 16.933 90.6645 16.3077 91.0892 15.5322L89.8612 14.8598C89.5499 15.4283 89.1289 15.875 88.5922 16.2104L89.3342 17.3976ZM91.0924 15.5262C91.5194 14.7279 91.7272 13.8449 91.7272 12.892H90.3272C90.3272 13.6351 90.167 14.2881 89.8579 14.8658L91.0924 15.5262ZM91.7272 12.892C91.7272 11.9257 91.5205 11.0394 91.0892 10.2518L89.8612 10.9242C90.1659 11.4806 90.3272 12.1303 90.3272 12.892H91.7272ZM91.0924 10.2578C90.6676 9.4635 90.0769 8.8319 89.3233 8.37975L88.603 9.5802C89.1295 9.8961 89.5468 10.3365 89.8579 10.9182L91.0924 10.2578ZM89.3342 8.3864C88.5739 7.91122 87.7153 7.68 86.7792 7.68V9.08C87.4751 9.08 88.0725 9.24878 88.5922 9.5736L89.3342 8.3864ZM86.7792 7.68C85.8562 7.68 85.0012 7.91258 84.2308 8.38234L84.9596 9.5777C85.5012 9.24742 86.1022 9.08 86.7792 9.08V7.68ZM84.2351 8.37975C83.4843 8.83023 82.8881 9.4582 82.448 10.2468L83.6704 10.9292C83.9983 10.3418 84.4261 9.8978 84.9553 9.5802L84.2351 8.37975ZM82.4452 10.2518C82.0139 11.0394 81.8072 11.9257 81.8072 12.892H83.2072C83.2072 12.1303 83.3685 11.4806 83.6732 10.9242L82.4452 10.2518ZM81.8072 12.892C81.8072 13.8449 82.015 14.7279 82.4419 15.5262L83.6764 14.8658C83.3674 14.2881 83.2072 13.6351 83.2072 12.892H81.8072ZM82.4514 15.5433C82.8913 16.313 83.4836 16.9347 84.2242 17.3976L84.9662 16.2104C84.4268 15.8733 83.9951 15.423 83.667 14.8487L82.4514 15.5433ZM84.2416 17.4081C85.0106 17.8582 85.8617 18.08 86.7792 18.08V16.68C86.0967 16.68 85.4918 16.5178 84.9488 16.1999L84.2416 17.4081ZM98.5585 19.132L98.0468 19.6096L98.0632 19.6273L98.0809 19.6437L98.5585 19.132ZM98.5585 6.652L98.0809 6.14026L98.0721 6.14849L98.0635 6.15702L98.5585 6.652ZM100.671 7.804H99.9706V9.4939L101.166 8.29897L100.671 7.804ZM102.471 6.628L102.736 7.27588L102.471 6.628ZM107.703 6.916L107.363 7.52791L107.37 7.53163L107.376 7.5352L107.703 6.916ZM109.767 8.98L109.152 9.31447L109.157 9.32267L109.767 8.98ZM110.175 19.132L109.68 18.637L110.175 19.132ZM108.423 19.132L107.911 19.6096L107.928 19.6273L107.945 19.6437L108.423 19.132ZM106.983 9.364L106.518 9.8872L106.524 9.8926L106.53 9.8979L106.983 9.364ZM102.447 8.812L102.134 8.1859L102.447 8.812ZM101.151 9.916L101.721 10.3229L101.727 10.3134L101.151 9.916ZM100.335 19.132L100.83 19.627L100.838 19.6184L100.847 19.6096L100.335 19.132ZM99.4466 18.768C99.2576 18.768 99.1366 18.714 99.0361 18.6203L98.0809 19.6437C98.4604 19.998 98.9312 20.168 99.4466 20.168V18.768ZM99.0706 18.6544C98.9765 18.5539 98.9225 18.4327 98.9225 18.244H97.5225C97.5225 18.7593 97.6925 19.2301 98.0468 19.6096L99.0706 18.6544ZM98.9225 18.244V7.54H97.5225V18.244H98.9225ZM98.9225 7.54C98.9225 7.3252 98.982 7.21841 99.0535 7.14697L98.0635 6.15702C97.687 6.53359 97.5225 7.0188 97.5225 7.54H98.9225ZM99.0361 7.16374C99.1366 7.06995 99.2576 7.016 99.4466 7.016V5.616C98.9312 5.616 98.4604 5.78604 98.0809 6.14026L99.0361 7.16374ZM99.4466 7.016C99.6616 7.016 99.7686 7.07554 99.8396 7.14697L100.83 6.15702C100.453 5.78046 99.9676 5.616 99.4466 5.616V7.016ZM99.8396 7.14697C99.9106 7.21841 99.9706 7.3252 99.9706 7.54H101.371C101.371 7.0188 101.206 6.53359 100.83 6.15702L99.8396 7.14697ZM99.9706 7.54V7.804H101.371V7.54H99.9706ZM101.166 8.29897C101.591 7.87408 102.111 7.53168 102.736 7.27588L102.206 5.98012C101.423 6.30032 100.743 6.74192 100.176 7.30902L101.166 8.29897ZM102.736 7.27588C103.35 7.02474 104.019 6.896 104.751 6.896V5.496C103.851 5.496 103 5.65526 102.206 5.98012L102.736 7.27588ZM104.751 6.896C105.75 6.896 106.615 7.1122 107.363 7.52791L108.043 6.30409C107.063 5.7598 105.96 5.496 104.751 5.496V6.896ZM107.376 7.5352C108.129 7.9319 108.719 8.51815 109.152 9.31444L110.382 8.64556C109.823 7.61785 109.037 6.8281 108.029 6.2968L107.376 7.5352ZM109.157 9.32267C109.596 10.1054 109.835 11.1003 109.835 12.34H111.235C111.235 10.9237 110.962 9.6786 110.377 8.63733L109.157 9.32267ZM109.835 12.34V18.244H111.235V12.34H109.835ZM109.835 18.244C109.835 18.418 109.783 18.5336 109.68 18.637L110.67 19.627C111.046 19.2504 111.235 18.774 111.235 18.244H109.835ZM109.68 18.637C109.602 18.7146 109.5 18.768 109.311 18.768V20.168C109.826 20.168 110.299 19.9974 110.67 19.627L109.68 18.637ZM109.311 18.768C109.122 18.768 109.001 18.714 108.901 18.6203L107.945 19.6437C108.325 19.998 108.796 20.168 109.311 20.168V18.768ZM108.935 18.6544C108.841 18.5539 108.787 18.4327 108.787 18.244H107.387C107.387 18.7593 107.557 19.2301 107.911 19.6096L108.935 18.6544ZM108.787 18.244V12.34H107.387V18.244H108.787ZM108.787 12.34C108.787 10.8619 108.385 9.6348 107.436 8.83007L106.53 9.8979C107.053 10.3412 107.387 11.0981 107.387 12.34H108.787ZM107.448 8.84081C106.583 8.07206 105.507 7.704 104.271 7.704V9.104C105.211 9.104 105.943 9.37594 106.518 9.8872L107.448 8.84081ZM104.271 7.704C103.502 7.704 102.785 7.86038 102.134 8.1859L102.76 9.4381C103.197 9.21962 103.696 9.104 104.271 9.104V7.704ZM102.134 8.1859C101.493 8.50641 100.967 8.94977 100.575 9.5186L101.727 10.3134C101.975 9.9542 102.313 9.6616 102.76 9.4381L102.134 8.1859ZM100.581 9.5091C100.17 10.085 99.9706 10.7497 99.9706 11.476H101.371C101.371 11.0183 101.492 10.643 101.721 10.3229L100.581 9.5091ZM99.9706 11.476V18.244H101.371V11.476H99.9706ZM99.9706 18.244C99.9706 18.4327 99.9166 18.5539 99.8226 18.6544L100.847 19.6096C101.201 19.2301 101.371 18.7593 101.371 18.244H99.9706ZM99.8396 18.637C99.7686 18.7085 99.6616 18.768 99.4466 18.768V20.168C99.9676 20.168 100.453 20.0035 100.83 19.627L99.8396 18.637ZM118.062 18.7L117.688 19.2918L117.695 19.2956L117.701 19.2993L118.062 18.7ZM115.902 16.348L115.282 16.6728L115.284 16.6769L115.902 16.348ZM115.95 9.436L115.343 9.0887L115.341 9.09188L115.95 9.436ZM118.302 7.084L118.646 7.69362L118.654 7.68935L118.302 7.084ZM125.142 7.084L124.791 7.6894L124.798 7.69358L125.142 7.084ZM127.47 9.436L126.858 9.776L126.865 9.7875L127.47 9.436ZM127.494 21.508L126.88 21.1721L126.878 21.1761L127.494 21.508ZM125.142 23.98L124.781 23.3806L124.776 23.3832L125.142 23.98ZM118.494 24.22L118.206 24.858L118.494 24.22ZM115.974 22.252L115.418 22.6773L115.427 22.688L115.974 22.252ZM115.734 21.412L115.051 21.2601L115.047 21.2784L115.044 21.2969L115.734 21.412ZM116.214 20.716L115.826 20.1335L115.818 20.1392L116.214 20.716ZM117.102 20.524L116.958 21.209L116.965 21.2104L117.102 20.524ZM117.87 21.004L117.31 21.424L117.316 21.4317L117.322 21.4393L117.87 21.004ZM119.502 22.276L119.208 22.9111L119.502 22.276ZM123.846 22.18L123.504 21.5695L123.497 21.5732L123.846 22.18ZM125.406 20.548L126.024 20.8774L125.406 20.548ZM125.982 16.732H126.682V14.1067L125.375 16.3835L125.982 16.732ZM124.014 18.796L124.378 19.3942L124.386 19.3889L124.014 18.796ZM123.942 16.804L123.582 16.2038L123.942 16.804ZM125.43 15.22L124.816 14.8837L124.81 14.8952L125.43 15.22ZM125.43 10.564L124.807 10.8828L124.812 10.8916L124.816 10.9002L125.43 10.564ZM123.942 8.956L123.582 9.5562L123.942 8.956ZM119.526 8.956L119.886 9.5562L119.526 8.956ZM118.014 10.564L118.628 10.9002L118.632 10.8942L118.014 10.564ZM118.014 15.22L118.628 14.8838L118.014 15.22ZM119.526 16.804L119.166 17.4042L119.526 16.804ZM121.254 18.84C120.168 18.84 119.231 18.5879 118.424 18.1007L117.701 19.2993C118.749 19.9321 119.941 20.24 121.254 20.24V18.84ZM118.436 18.1082C117.631 17.5999 116.994 16.9084 116.52 16.0191L115.284 16.6769C115.867 17.7716 116.669 18.6481 117.688 19.2918L118.436 18.1082ZM116.522 16.0232C116.054 15.1286 115.81 14.0907 115.81 12.892H114.41C114.41 14.2853 114.695 15.5514 115.282 16.6728L116.522 16.0232ZM115.81 12.892C115.81 11.6821 116.068 10.6521 116.56 9.7801L115.341 9.09188C114.713 10.2039 114.41 11.4779 114.41 12.892H115.81ZM116.558 9.7833C117.073 8.88269 117.767 8.19028 118.646 7.69358L117.958 6.47442C116.854 7.09772 115.98 7.97331 115.343 9.0887L116.558 9.7833ZM118.654 7.68935C119.526 7.18307 120.545 6.92 121.734 6.92V5.52C120.331 5.52 119.063 5.83293 117.951 6.47865L118.654 7.68935ZM121.734 6.92C122.905 6.92 123.918 7.18231 124.791 7.68935L125.494 6.47865C124.383 5.83369 123.123 5.52 121.734 5.52V6.92ZM124.798 7.69358C125.676 8.1893 126.36 8.87934 126.858 9.7759L128.082 9.09605C127.46 7.97666 126.592 7.0987 125.486 6.47442L124.798 7.69358ZM126.865 9.7875C127.37 10.6581 127.634 11.6854 127.634 12.892H129.034C129.034 11.4746 128.722 10.1979 128.076 9.0845L126.865 9.7875ZM127.634 12.892V18.076H129.034V12.892H127.634ZM127.634 18.076C127.634 19.2326 127.379 20.2596 126.88 21.1721L128.108 21.8439C128.729 20.7084 129.034 19.4474 129.034 18.076H127.634ZM126.878 21.1761C126.377 22.1061 125.681 22.8376 124.781 23.3806L125.504 24.5794C126.62 23.9064 127.491 22.9899 128.111 21.8399L126.878 21.1761ZM124.776 23.3832C123.908 23.9154 122.886 24.192 121.686 24.192V25.592C123.11 25.592 124.392 25.2606 125.508 24.5768L124.776 23.3832ZM121.686 24.192C120.645 24.192 119.68 23.9874 118.782 23.582L118.206 24.858C119.293 25.3486 120.455 25.592 121.686 25.592V24.192ZM118.782 23.582C117.893 23.1805 117.142 22.5943 116.522 21.816L115.427 22.688C116.183 23.6377 117.111 24.3635 118.206 24.858L118.782 23.582ZM116.53 21.8268C116.418 21.6796 116.414 21.591 116.425 21.5271L115.044 21.2969C114.958 21.809 115.115 22.2804 115.418 22.6772L116.53 21.8268ZM116.418 21.5639C116.441 21.4585 116.492 21.3744 116.611 21.2928L115.818 20.1392C115.424 20.4096 115.156 20.7895 115.051 21.2601L116.418 21.5639ZM116.603 21.2984C116.754 21.1977 116.86 21.1883 116.958 21.209L117.246 19.839C116.737 19.7317 116.251 19.8503 115.826 20.1336L116.603 21.2984ZM116.965 21.2104C117.12 21.2414 117.224 21.3088 117.31 21.424L118.43 20.584C118.133 20.1872 117.725 19.9346 117.24 19.8376L116.965 21.2104ZM117.322 21.4393C117.825 22.0723 118.457 22.5632 119.208 22.9111L119.797 21.6409C119.235 21.3808 118.78 21.0237 118.418 20.5687L117.322 21.4393ZM119.208 22.9111C119.969 23.2639 120.816 23.432 121.734 23.432V22.032C120.989 22.032 120.347 21.8962 119.797 21.6409L119.208 22.9111ZM121.734 23.432C122.62 23.432 123.445 23.2184 124.195 22.7868L123.497 21.5732C122.968 21.8776 122.385 22.032 121.734 22.032V23.432ZM124.189 22.7905C124.971 22.3515 125.583 21.7051 126.024 20.8774L124.789 20.2186C124.462 20.8309 124.033 21.2725 123.504 21.5695L124.189 22.7905ZM126.024 20.8774C126.475 20.032 126.682 19.0321 126.682 17.908H125.282C125.282 18.8639 125.106 19.624 124.789 20.2186L126.024 20.8774ZM126.682 17.908V16.732H125.282V17.908H126.682ZM125.375 16.3835C124.934 17.1515 124.358 17.7542 123.642 18.2031L124.386 19.3889C125.303 18.8138 126.038 18.0405 126.589 17.0805L125.375 16.3835ZM123.651 18.1978C122.952 18.6224 122.16 18.84 121.254 18.84V20.24C122.397 20.24 123.444 19.9616 124.378 19.3942L123.651 18.1978ZM121.734 18.08C122.678 18.08 123.541 17.8608 124.302 17.4042L123.582 16.2038C123.063 16.5152 122.454 16.68 121.734 16.68V18.08ZM124.302 17.4042C125.055 16.9529 125.64 16.3288 126.05 15.5448L124.81 14.8952C124.517 15.4552 124.11 15.8871 123.582 16.2038L124.302 17.4042ZM126.044 15.5562C126.477 14.7667 126.682 13.8719 126.682 12.892H125.282C125.282 13.6721 125.12 14.3293 124.816 14.8838L126.044 15.5562ZM126.682 12.892C126.682 11.9121 126.477 11.0173 126.044 10.2278L124.816 10.9002C125.12 11.4547 125.282 12.1119 125.282 12.892H126.682ZM126.053 10.2452C125.644 9.445 125.059 8.80958 124.302 8.35575L123.582 9.5562C124.106 9.8704 124.513 10.307 124.807 10.8828L126.053 10.2452ZM124.302 8.35575C123.541 7.8992 122.678 7.68 121.734 7.68V9.08C122.454 9.08 123.063 9.2448 123.582 9.5562L124.302 8.35575ZM121.734 7.68C120.79 7.68 119.927 7.8992 119.166 8.35575L119.886 9.5562C120.406 9.2448 121.014 9.08 121.734 9.08V7.68ZM119.166 8.35575C118.413 8.8079 117.822 9.43952 117.397 10.2338L118.632 10.8942C118.943 10.3125 119.36 9.8721 119.886 9.5562L119.166 8.35575ZM117.4 10.2278C116.968 11.0173 116.762 11.9121 116.762 12.892H118.162C118.162 12.1119 118.325 11.4547 118.628 10.9002L117.4 10.2278ZM116.762 12.892C116.762 13.8719 116.968 14.7667 117.4 15.5562L118.628 14.8838C118.325 14.3293 118.162 13.6721 118.162 12.892H116.762ZM117.4 15.5562C117.826 16.3342 118.417 16.9546 119.166 17.4042L119.886 16.2038C119.356 15.8854 118.938 15.4498 118.628 14.8838L117.4 15.5562ZM119.166 17.4042C119.927 17.8608 120.79 18.08 121.734 18.08V16.68C121.014 16.68 120.406 16.5152 119.886 16.2038L119.166 17.4042Z" fill="white"/>
</svg>
