<svg width="120" height="120" viewBox="0 0 120 120" fill="none" xmlns="http://www.w3.org/2000/svg">
<g clip-path="url(#clip0)">
<path d="M90.1085 112.367C118.806 95.7989 128.639 59.1035 112.07 30.4059C95.5015 1.70836 58.8061 -8.12414 30.1085 8.4444C1.41094 25.0129 -8.42157 61.7084 8.14697 90.4059C24.7155 119.103 61.4109 128.936 90.1085 112.367Z" fill="#34D086"/>
<path fill-rule="evenodd" clip-rule="evenodd" d="M12.101 96.4059C10.6824 94.5092 9.36077 92.5084 8.14712 90.4061C6.66895 87.846 5.4009 85.2219 4.33765 82.5544C5.96933 81.6051 8.35093 80.2269 11.6787 78.3058C12.5552 77.7997 14.3083 76.7818 15.5744 76.0434C16.8405 75.3052 19.1913 73.9391 20.7982 73.0076L22.5211 72.0082C22.454 71.8483 22.3886 71.6901 22.3248 71.5337C20.702 67.1944 19.8466 61.7565 20.0133 56.8367C20.2047 51.1894 21.2517 46.7932 23.5782 41.8689C26.8516 34.9402 31.4337 29.6946 38.0105 25.3464C43.3758 21.7991 49.2517 19.431 54.4846 18.7067C56.8263 18.3826 61.6571 18.3808 64.082 18.7032C70.4928 19.5555 76.7401 22.5384 82.4966 27.4959C83.5008 28.3607 84.83 29.6229 85.4508 30.3011C88.2837 33.3966 91.5539 37.9736 92.8239 40.6215C93.9935 43.0603 93.9952 45.528 92.8282 47.9272C91.9316 49.7706 90.6791 50.9062 87.5096 52.7484C86.0487 53.5978 83.2597 55.2171 81.3119 56.3469C72.1992 61.6327 70.6139 62.5534 66.9686 64.6746C60.7301 68.3051 51.4927 73.6669 50.1461 74.439C49.4643 74.8299 48.1621 75.5887 47.2522 76.1256L45.5979 77.1013L46.2783 77.8067C47.9101 79.4989 50.8852 81.3604 53.6069 82.3924C56.7944 83.601 57.65 83.7431 61.7448 83.7431C65.1316 83.7431 65.4995 83.7103 67.2342 83.2547C69.5296 82.6519 71.2698 81.9846 73.5414 80.8361C78.7106 78.2227 82.4984 74.2389 85.5457 68.2101C86.3836 66.5524 86.7581 66.0236 87.7846 65.0492C90.2803 62.6801 93.0851 61.8351 96.0884 62.5474C101.09 63.7337 103.708 67.9986 102.215 72.5248C99.8947 79.5596 92.4905 88.575 84.9419 93.5573C83.1187 94.7606 79.202 96.7896 76.7964 97.7767C68.3964 101.224 59.6844 101.901 51.2163 99.7642C47.8244 98.9085 43.9409 97.3093 41.0962 95.5972C37.1549 93.2252 32.7695 89.3177 30.2321 85.9176L30.2146 85.8939L30.0948 85.9637C23.8563 89.5942 14.6189 94.956 13.2724 95.7281C12.973 95.8997 12.554 96.1423 12.101 96.4059ZM69.2697 39.1063C66.9862 37.5559 64.628 36.5184 61.8333 35.835C57.8052 34.8501 53.2302 35.7298 48.7169 38.3571C42.7171 41.85 39.2675 46.089 37.7396 51.8473C37.1062 54.2336 36.9395 58.6258 37.3846 61.2007C37.6938 62.9901 37.8536 63.3368 38.2302 63.0352C38.4262 62.8781 41.1457 61.2926 48.5525 57.0169C49.4289 56.5108 51.182 55.4927 52.4482 54.7543C53.7142 54.0161 56.0649 52.65 57.6719 51.7185C59.279 50.7872 61.9484 49.2371 63.6041 48.2739C65.2597 47.3109 68.0487 45.6911 69.8019 44.6749C71.5548 43.6582 73.0531 42.7631 73.1313 42.6859C73.3269 42.492 70.7829 40.1338 69.2697 39.1063Z" fill="white"/>
</g>
<defs>
<clipPath id="clip0">
<rect width="120" height="120" fill="white"/>
</clipPath>
</defs>
</svg>
