<svg width="145" height="145" viewBox="0 0 145 145" fill="none" xmlns="http://www.w3.org/2000/svg">
<g clip-path="url(#clip0)">
<rect width="145" height="145" rx="72.5" fill="#215599"/>
<path d="M97.3829 101.836L97.3867 101.844C98.9991 105.324 101.263 108.109 104.183 110.171C107.127 112.249 110.503 113.282 114.276 113.282H116.52C119.115 113.282 121.332 112.675 123.091 111.379C124.871 110.068 125.816 108.315 125.816 106.182C125.816 104.188 125.222 102.474 123.976 101.124C122.794 99.7536 121.21 99.082 119.326 99.082H114.276C112.939 99.082 111.762 98.3885 110.748 96.6501C109.723 94.8936 109.176 92.6011 109.176 89.712V-3.9C109.176 -5.92225 108.523 -7.65124 107.175 -8.99911C105.827 -10.347 104.098 -11 102.076 -11C100.054 -11 98.3248 -10.347 96.9769 -8.99911C95.629 -7.65124 94.976 -5.92225 94.976 -3.9V89.712C94.976 94.222 95.7698 98.2703 97.3829 101.836L97.3829 101.836Z" fill="white" stroke="white" stroke-width="2"/>
<path d="M54.6492 113.334L54.6584 113.333L54.6677 113.333C60.8545 113.15 66.9385 111.317 72.91 107.87C76.2568 105.937 79.3742 103.313 82.2656 100.013C85.2231 96.6776 87.3909 93.3051 88.7394 89.893C89.5043 88.0492 89.4667 86.2755 88.449 84.719C87.4645 83.2135 85.8936 82.3013 83.8953 81.8975L83.8851 81.8955L83.8749 81.8936C82.2534 81.6008 80.7089 81.9382 79.2879 82.86C77.9009 83.6678 76.8691 84.8724 76.1866 86.4237L76.1866 86.4236L76.1824 86.4335C75.4352 88.1827 74.1826 90.1251 72.3891 92.2623C70.65 94.2594 68.741 95.852 66.664 97.0512C61.4889 100.039 56.3049 101.087 51.079 100.257C46.2521 99.3833 42.2012 97.1113 38.9012 93.4132L78.0111 70.8331C79.607 69.9117 80.7083 68.6291 81.2206 66.9834L81.2265 66.9643L81.2317 66.945C81.6899 65.2351 81.4536 63.5716 80.5533 62.0122C77.2786 56.3403 73.298 51.9325 68.5978 48.8271C63.9231 45.6076 58.8143 43.9274 53.2915 43.8043C47.7069 43.6101 42.0946 45.1667 36.4701 48.414C30.7711 51.7043 26.437 55.9395 23.5067 61.1265C20.5417 66.2325 19.1101 71.8142 19.2097 77.8503L19.2097 77.8503L19.2098 77.8558C19.3405 83.7987 21.13 89.7241 24.5352 95.6221C27.9059 101.46 32.22 105.933 37.485 109.004L37.4932 109.009L37.5014 109.014C42.7839 111.963 48.506 113.402 54.6492 113.334ZM55.9066 57.1752L55.9066 57.1752L55.9182 57.1785C59.8458 58.283 63.2907 60.5541 66.2542 64.0417L33.1518 83.1533C31.7875 78.6877 31.7791 74.3995 33.097 70.2606C34.5082 65.8289 37.6707 62.1453 42.7161 59.2324C47.3132 56.5782 51.6891 55.9341 55.9066 57.1752Z" fill="white" stroke="white" stroke-width="2"/>
<path d="M-12.2278 109.947L-12.6608 110.197L-12.4108 110.63L-7.66074 118.857L-7.41074 119.29L-6.97773 119.04L70.0985 74.5401L70.5315 74.2901L70.2815 73.8571L65.5315 65.6298L65.2815 65.1967L64.8485 65.4467L-12.2278 109.947Z" fill="white" stroke="white"/>
</g>
<defs>
<clipPath id="clip0">
<rect width="145" height="145" rx="72.5" fill="white"/>
</clipPath>
</defs>
</svg>
