<svg width="1503" height="1135" viewBox="0 0 1503 1135" fill="none" xmlns="http://www.w3.org/2000/svg">
<rect x="62.9999" y="143" width="1440" height="992" fill="url(#paint0_linear)" fill-opacity="0.6"/>
<g opacity="0.7" filter="url(#filter0_d)">
<path fill-rule="evenodd" clip-rule="evenodd" d="M63.0101 260.505V250.784C79.6529 257.24 107.173 271.301 130.976 299.474C168.036 343.335 193.739 416.286 200.939 457.295C202.885 468.373 191.966 455.29 169.729 428.647C161.427 418.701 151.549 406.866 140.175 393.692C118.059 368.079 109.259 338.445 101.983 313.944C95.4926 292.086 90.2144 274.313 77.7779 267.129C72.9351 264.332 67.7407 262.155 63.0101 260.505ZM63.0101 250.611V228.312C68.9989 227.874 76.2348 226.898 83.0599 224.807C96.8828 220.573 105.162 204.284 115.346 184.25L115.352 184.238C116.385 182.207 117.437 180.137 118.516 178.038C105.085 179.907 92.7702 178.176 82.0928 176.674C74.9482 175.669 68.5351 174.768 63.0101 175.115V164.103C68.8805 160.533 75.5391 157.247 82.9501 154.709C99.2327 149.131 118.351 147.182 136.309 147.425C144.39 135.685 154.305 124.256 167.251 114.472C180.975 104.103 192.959 94.7072 203.029 86.812C230.005 65.6616 243.252 55.2769 239.458 65.7364C225.411 104.457 187.318 170.394 142.447 205.11C124.204 219.224 105.376 227.432 89.4533 232.206C106.678 232.292 125.155 231.536 136.477 228.582C146.654 225.928 156.853 216.701 168.891 205.814C187.531 188.952 210.577 168.107 244.77 161.501C301.045 150.632 325.828 147.613 320.413 156.407C301.815 186.615 246.946 229.086 196.745 239.507C169.102 245.247 126.416 244.205 93.6349 242.11C99.8913 243.432 105.899 244.79 111.614 246.082H111.615C128.565 249.913 142.934 253.161 153.582 253.163C188.47 253.166 221.506 244.813 251.148 237.32H251.149C273.795 231.595 294.461 226.371 312.459 225.755C403.74 222.633 441.386 253.551 427.049 257.514C376.308 271.544 356.957 285.927 343.027 296.281C329.44 306.382 321.01 312.648 293.629 311.012C262.653 309.161 244.448 301.432 222.448 292.09C206.98 285.522 189.634 278.158 164.653 271.479C161.154 270.542 157.203 269.553 152.923 268.526C170.195 275.481 186.956 283.68 200.901 292.934C257.367 330.412 278.637 457.862 269.659 482.339C266.763 490.236 265.299 484.212 262.558 472.942C259.917 462.08 256.092 446.345 248.657 433.498C243.69 424.911 234.031 416.485 222.832 406.715C199.886 386.696 170.471 361.034 161.673 316.79C152.115 268.726 97.2701 257.578 66.6527 251.353C65.397 251.099 64.1808 250.852 63.0101 250.611ZM63.0101 134.631V143.284C84.0627 137.467 108.653 129.394 124.653 119.993C157.578 100.648 189.915 55.9613 199.02 28.8372C201.671 20.9406 185.168 28.8801 148.164 49.9502C125.681 62.7523 112.451 83.8002 101.752 100.824C94.8413 111.816 88.987 121.132 82.3753 125.464C77.5645 128.617 70.5618 131.756 63.0101 134.631ZM63.0101 387.056C85.0015 395.601 113.675 408.114 130.94 421.022C161.904 444.171 189.952 492.452 196.512 520.509C198.422 528.678 182.74 518.821 147.878 493.472C126.695 478.07 115.475 455.566 106.399 437.366C100.539 425.612 95.574 415.653 89.3977 410.559C83.2844 405.518 73.1374 400.021 63.0101 395.183V387.056ZM63.0101 406.681V414.07C67.7592 420.235 69.5157 429.895 71.593 441.323C74.4079 456.808 77.8124 475.537 90.0527 493.212C96.3474 502.302 101.785 510.434 106.354 517.268C118.594 535.575 124.605 544.564 124.193 537.7C122.671 512.292 111.701 465.772 91.2604 435.588C82.4049 422.51 71.9803 413.122 63.0101 406.681ZM63.0101 110.962V122.205C71.2193 116.987 80.2178 109.791 88.4023 100.019C111.507 72.4277 126.698 27.4656 130.549 2.37665C131.591 -4.40057 124.786 3.82574 110.928 20.579C105.756 26.8325 99.599 34.2733 92.5025 42.5675C78.7031 58.6904 73.5938 76.9135 69.369 91.9794C67.3349 99.2346 65.5056 105.758 63.0101 110.962Z" fill="#F3F0E0" fill-opacity="0.8"/>
</g>
<g filter="url(#filter1_d)">
<path d="M99.0976 501.737C90.4748 506.989 85.6972 501.482 82.2992 499.041C78.9012 496.599 64.4368 478.039 64.4368 478.039L53.2461 478.355C53.2461 478.355 72.7721 506.129 80.4464 510.585C88.1207 515.041 92.6185 517.388 100.083 512.878C107.547 508.368 118.12 506.353 117.381 519.411C116.437 525.293 112.508 524.663 108.772 525.237C105.015 527.494 103.564 538.416 118.342 533.161C129.484 527.387 130.777 516.679 125.155 506.72C119.35 496.445 108.707 495.9 99.0976 501.737Z" fill="#F0BB04"/>
</g>
<path fill-rule="evenodd" clip-rule="evenodd" d="M112.685 482.012L112.685 435.352L55.5852 431.752C49.8263 431.389 44.956 435.962 44.956 441.733L44.956 442.112L44.956 475.849L44.956 484.757C44.956 491.166 50.8999 495.92 57.1522 494.513L112.685 482.012Z" fill="#F0BB04"/>
<g filter="url(#filter2_d)">
<path fill-rule="evenodd" clip-rule="evenodd" d="M174.674 432.632C177.676 428.929 175.307 423.355 170.674 423.223L140.965 422.354C140.455 422.279 139.94 422.203 139.42 422.146C122.704 420.351 107.464 435.277 105.38 455.455C103.307 475.519 115.015 493.241 131.574 495.206L161.854 501.932C166.547 502.99 170.139 497.832 167.736 493.506L160.043 479.638C163.134 474.575 165.226 468.529 165.908 461.916C166.515 456.041 165.94 450.373 164.409 445.253L174.674 432.632Z" fill="#F0BB04"/>
</g>
<path fill-rule="evenodd" clip-rule="evenodd" d="M120.07 467.962C119.199 466.966 119.355 465.433 120.407 464.647C122.007 463.421 124.297 464.724 124.095 466.716C123.891 468.728 121.391 469.495 120.07 467.962Z" fill="white"/>
<path fill-rule="evenodd" clip-rule="evenodd" d="M134.18 444.083C131.58 443.801 129.229 445.91 128.931 448.792C128.634 451.655 130.501 454.216 133.101 454.48C135.703 454.763 138.052 452.653 138.349 449.79C138.649 446.909 136.781 444.366 134.18 444.083ZM130.776 477.797C128.174 477.534 125.825 479.624 125.527 482.506C125.228 485.369 127.096 487.931 129.697 488.213C132.297 488.477 134.648 486.386 134.946 483.504C135.243 480.642 133.376 478.08 130.776 477.797Z" fill="white"/>
<path d="M100.983 458.293C100.983 472.027 44.9117 475.196 44.9117 475.196L44.9117 446.541C44.9117 446.541 100.983 444.56 100.983 458.293Z" fill="white" fill-opacity="0.8"/>
<path d="M100.983 458.293C100.983 472.027 44.9117 475.196 44.9117 475.196L44.9117 446.541C44.9117 446.541 100.983 444.56 100.983 458.293Z" fill="url(#paint1_linear)"/>
<path d="M50.9409 474.542L53.5381 492.219L53.0911 492.293C48.0551 493.127 43.474 489.243 43.474 484.138L43.474 479.198C43.474 475.361 47.4958 472.853 50.9409 474.542Z" fill="#F0BB04"/>
<path d="M50.5788 446.025L52.0927 431.583L51.0592 431.304C47 430.211 43.0097 433.269 43.0097 437.473L43.0097 443.28C43.0097 447.283 48.0129 449.097 50.5788 446.025Z" fill="#F0BB04"/>
<path d="M178.01 589C269.69 589 344.01 514.679 344.01 423C344.01 331.321 269.69 257 178.01 257" stroke="#EABF2A" stroke-width="3" stroke-linecap="round" stroke-dasharray="2 15"/>
<circle cx="218" cy="261" r="45" fill="#34D086"/>
<path d="M223.523 277H217.488V260.477L217.547 257.762L217.645 254.793C216.642 255.796 215.945 256.453 215.555 256.766L212.273 259.402L209.363 255.77L218.562 248.445H223.523V277Z" fill="white"/>
<circle cx="338" cy="418" r="45" fill="#34D086"/>
<path d="M348.562 434H328.602V429.801L335.77 422.555C337.892 420.38 339.279 418.876 339.93 418.043C340.581 417.197 341.049 416.415 341.336 415.699C341.622 414.983 341.766 414.241 341.766 413.473C341.766 412.327 341.447 411.474 340.809 410.914C340.184 410.354 339.344 410.074 338.289 410.074C337.182 410.074 336.108 410.328 335.066 410.836C334.025 411.344 332.938 412.066 331.805 413.004L328.523 409.117C329.93 407.919 331.095 407.073 332.02 406.578C332.944 406.083 333.953 405.706 335.047 405.445C336.141 405.172 337.365 405.035 338.719 405.035C340.503 405.035 342.078 405.361 343.445 406.012C344.812 406.663 345.874 407.574 346.629 408.746C347.384 409.918 347.762 411.259 347.762 412.77C347.762 414.085 347.527 415.322 347.059 416.48C346.603 417.626 345.887 418.805 344.91 420.016C343.947 421.227 342.241 422.952 339.793 425.191L336.121 428.648V428.922H348.562V434Z" fill="white"/>
<circle cx="214" cy="587" r="45" fill="#34D086"/>
<path d="M223.449 580.832C223.449 582.616 222.909 584.133 221.828 585.383C220.747 586.633 219.23 587.492 217.277 587.961V588.078C219.582 588.365 221.327 589.068 222.512 590.188C223.697 591.294 224.289 592.792 224.289 594.68C224.289 597.427 223.293 599.569 221.301 601.105C219.309 602.629 216.464 603.391 212.766 603.391C209.667 603.391 206.919 602.876 204.523 601.848V596.711C205.63 597.271 206.848 597.727 208.176 598.078C209.504 598.43 210.819 598.605 212.121 598.605C214.113 598.605 215.585 598.267 216.535 597.59C217.486 596.913 217.961 595.826 217.961 594.328C217.961 592.987 217.414 592.036 216.32 591.477C215.227 590.917 213.482 590.637 211.086 590.637H208.918V586.008H211.125C213.339 586.008 214.953 585.721 215.969 585.148C216.997 584.562 217.512 583.566 217.512 582.16C217.512 579.999 216.158 578.918 213.449 578.918C212.512 578.918 211.555 579.074 210.578 579.387C209.615 579.699 208.54 580.24 207.355 581.008L204.562 576.848C207.167 574.973 210.272 574.035 213.879 574.035C216.835 574.035 219.165 574.634 220.871 575.832C222.59 577.03 223.449 578.697 223.449 580.832Z" fill="white"/>
<path d="M3.00001 422C3.00001 513.679 77.3207 588 169 588" stroke="#EABF2A" stroke-width="3" stroke-linecap="round" stroke-dasharray="2 15"/>
<defs>
<filter id="filter0_d" x="59.0101" y="0" width="375" height="548" filterUnits="userSpaceOnUse" color-interpolation-filters="sRGB">
<feFlood flood-opacity="0" result="BackgroundImageFix"/>
<feColorMatrix in="SourceAlpha" type="matrix" values="0 0 0 0 0 0 0 0 0 0 0 0 0 0 0 0 0 0 127 0"/>
<feOffset dy="4"/>
<feGaussianBlur stdDeviation="2"/>
<feColorMatrix type="matrix" values="0 0 0 0 0 0 0 0 0 0 0 0 0 0 0 0 0 0 0.1 0"/>
<feBlend mode="normal" in2="BackgroundImageFix" result="effect1_dropShadow"/>
<feBlend mode="normal" in="SourceGraphic" in2="effect1_dropShadow" result="shape"/>
</filter>
<filter id="filter1_d" x="51.2461" y="478.039" width="83.1617" height="64.5353" filterUnits="userSpaceOnUse" color-interpolation-filters="sRGB">
<feFlood flood-opacity="0" result="BackgroundImageFix"/>
<feColorMatrix in="SourceAlpha" type="matrix" values="0 0 0 0 0 0 0 0 0 0 0 0 0 0 0 0 0 0 127 0"/>
<feOffset dx="2" dy="4"/>
<feGaussianBlur stdDeviation="2"/>
<feColorMatrix type="matrix" values="0 0 0 0 0 0 0 0 0 0 0 0 0 0 0 0 0 0 0.1 0"/>
<feBlend mode="normal" in2="BackgroundImageFix" result="effect1_dropShadow"/>
<feBlend mode="normal" in="SourceGraphic" in2="effect1_dropShadow" result="shape"/>
</filter>
<filter id="filter2_d" x="99.142" y="414" width="86.8681" height="96.0718" filterUnits="userSpaceOnUse" color-interpolation-filters="sRGB">
<feFlood flood-opacity="0" result="BackgroundImageFix"/>
<feColorMatrix in="SourceAlpha" type="matrix" values="0 0 0 0 0 0 0 0 0 0 0 0 0 0 0 0 0 0 127 0"/>
<feOffset dx="2"/>
<feGaussianBlur stdDeviation="4"/>
<feColorMatrix type="matrix" values="0 0 0 0 0 0 0 0 0 0 0 0 0 0 0 0 0 0 0.1 0"/>
<feBlend mode="normal" in2="BackgroundImageFix" result="effect1_dropShadow"/>
<feBlend mode="normal" in="SourceGraphic" in2="effect1_dropShadow" result="shape"/>
</filter>
<linearGradient id="paint0_linear" x1="870.06" y1="192.402" x2="1004.19" y2="2099.24" gradientUnits="userSpaceOnUse">
<stop stop-color="#FFF0BC" stop-opacity="0.39"/>
<stop offset="1" stop-color="white" stop-opacity="0"/>
</linearGradient>
<linearGradient id="paint1_linear" x1="50.6626" y1="455.787" x2="55.6946" y2="455.787" gradientUnits="userSpaceOnUse">
<stop stop-color="white" stop-opacity="0.911762"/>
<stop stop-color="white"/>
<stop stop-color="white" stop-opacity="0"/>
</linearGradient>
</defs>
</svg>
