<svg width="1452" height="596" viewBox="0 0 1452 607" fill="none" xmlns="http://www.w3.org/2000/svg">
<path d="M12 42.0002H1452V607H12V42.0002Z" fill="#F3F0E0"/>
<circle cx="1152.5" cy="209.5" r="74.5" fill="#6DDAA1"/>
<path d="M1308.67 288.829C1310.23 290.391 1312.77 290.391 1314.33 288.829L1339.78 263.373C1341.35 261.811 1341.35 259.278 1339.78 257.716C1338.22 256.154 1335.69 256.154 1334.13 257.716L1311.5 280.343L1288.87 257.716C1287.31 256.154 1284.78 256.154 1283.22 257.716C1281.65 259.278 1281.65 261.811 1283.22 263.373L1308.67 288.829ZM1138.36 210.999C1118.06 228.873 1102.05 239.302 1089.6 244.139C1077.2 248.958 1068.94 248.025 1063.32 244.243C1057.48 240.319 1053.33 232.603 1050.91 221.383C1048.51 210.265 1047.96 196.405 1048.68 181.191C1050.13 150.79 1056.65 115.807 1062.85 88.3168C1065.94 74.5952 1068.94 62.7863 1071.17 54.4107C1072.28 50.2236 1073.2 46.8961 1073.84 44.6187C1074.16 43.48 1074.41 42.6039 1074.58 42.0143C1074.67 41.7194 1074.73 41.4962 1074.77 41.3476C1074.8 41.2732 1074.81 41.2175 1074.82 41.1809C1074.83 41.1626 1074.83 41.149 1074.83 41.1402C1074.84 41.1358 1074.84 41.1329 1074.84 41.1307C1074.84 41.1289 1074.84 41.1283 1071 40C1067.16 38.8717 1067.16 38.8735 1067.16 38.8766C1067.16 38.8793 1067.16 38.8835 1067.16 38.8888C1067.15 38.8994 1067.15 38.9147 1067.14 38.9348C1067.13 38.9751 1067.11 39.0344 1067.09 39.1123C1067.05 39.2683 1066.98 39.499 1066.89 39.8014C1066.72 40.4063 1066.46 41.2983 1066.14 42.4536C1065.49 44.764 1064.56 48.128 1063.44 52.3549C1061.19 60.8075 1058.16 72.7174 1055.04 86.5582C1048.82 114.193 1042.18 149.71 1040.69 180.809C1039.95 196.345 1040.48 210.986 1043.09 223.071C1045.68 235.054 1050.47 245.244 1058.85 250.883C1067.45 256.663 1078.72 256.949 1092.5 251.596C1106.23 246.262 1123.06 235.128 1143.64 217.002L1138.36 210.999ZM1143.64 217.002C1184.48 181.032 1215.29 157.572 1238.52 145.028C1262.01 132.339 1276.22 131.617 1285.27 137.963C1289.93 141.234 1293.81 146.731 1296.93 154.837C1300.05 162.937 1302.3 173.342 1303.88 186.02C1307.06 211.394 1307.5 245.078 1307.5 286L1315.5 286C1315.5 245.173 1315.07 210.982 1311.82 185.027C1310.2 172.042 1307.84 160.919 1304.4 151.962C1300.95 143.012 1296.29 135.923 1289.86 131.413C1276.72 122.196 1258.52 125.131 1234.72 137.989C1210.64 150.992 1179.26 174.969 1138.36 210.999L1143.64 217.002Z" fill="#F0BB04"/>
<rect x="1110" y="166" width="86" height="86" rx="15" fill="black"/>
<rect x="1120" y="176" width="66" height="66" rx="10" fill="#FFFEF4"/>
<path d="M1142.26 194.687V219.67C1142.26 219.67 1125.06 223.514 1129.84 229.279C1134.61 235.045 1146.08 226.5 1146.08 224.475V198.531L1165.18 192.765V213.905C1165.18 213.905 1148.94 215.827 1151.81 222.553C1154.67 229.279 1169 219.67 1169 217.749V187L1142.26 194.687Z" fill="black"/>
<path d="M1145 203.5L1166 197" stroke="black" stroke-width="1.5"/>
<circle opacity="0.7" cx="325.5" cy="178.5" r="74.5" fill="#34D086"/>
<path d="M336.709 168.491L340.155 170.521L336.709 168.491ZM494.668 310.942C496.016 309.192 495.691 306.68 493.941 305.332L465.424 283.36C463.674 282.011 461.162 282.337 459.814 284.087C458.466 285.837 458.791 288.348 460.541 289.697L485.89 309.227L466.359 334.576C465.01 336.326 465.336 338.838 467.086 340.186C468.836 341.534 471.348 341.209 472.696 339.459L494.668 310.942ZM340.155 170.521C348.415 156.498 350.343 144.668 344.774 135.577C339.405 126.811 328.015 122.337 314.282 120.268C286.486 116.079 243.786 120.999 199.702 129.184C155.448 137.402 109.222 149.029 74.0895 158.591C56.5162 163.374 41.7036 167.644 31.2817 170.719C26.0706 172.257 21.9565 173.496 19.1433 174.352C17.7367 174.779 16.6553 175.111 15.9244 175.336C15.559 175.449 15.2812 175.535 15.0943 175.593C15.0008 175.622 14.9301 175.644 14.8824 175.659C14.8586 175.666 14.8405 175.672 14.8283 175.675C14.8222 175.677 14.8174 175.679 14.8143 175.68C14.811 175.681 14.8092 175.681 15.9998 179.5C17.1905 183.319 17.1916 183.318 17.1941 183.318C17.1969 183.317 17.2009 183.315 17.2065 183.314C17.2177 183.31 17.2346 183.305 17.2574 183.298C17.3029 183.284 17.3715 183.262 17.4628 183.234C17.6454 183.178 17.9188 183.093 18.2797 182.982C19.0015 182.759 20.0736 182.431 21.4706 182.006C24.2644 181.156 28.3574 179.923 33.5459 178.392C43.9235 175.33 58.6809 171.076 76.1904 166.31C111.224 156.775 157.214 145.211 201.163 137.05C245.282 128.858 286.772 124.212 313.09 128.178C326.414 130.187 334.561 134.22 337.952 139.756C341.144 144.967 341.054 153.232 333.262 166.461L340.155 170.521ZM333.262 166.461C316.914 194.215 311.413 218.412 314.669 238.951C317.937 259.569 329.93 275.858 347.241 287.907C381.617 311.835 437.529 319.53 492.014 312.467L490.985 304.533C437.47 311.471 383.882 303.665 351.811 281.341C335.898 270.264 325.43 255.738 322.57 237.698C319.697 219.578 324.399 197.272 340.155 170.521L333.262 166.461Z" fill="#F0BB04"/>
<path d="M366 150.582H286C284.343 150.582 283 151.925 283 153.582V206.062C283 207.719 284.343 209.062 286 209.062H318.26C318.26 209.062 320.84 212.502 326 212.502C331.16 212.502 333.74 209.062 333.74 209.062H366C367.657 209.062 369 207.719 369 206.062V153.582C369 151.925 367.657 150.582 366 150.582Z" fill="black" stroke="#979797"/>
<path d="M326 202.182H288.16V150.582C288.16 150.582 288.16 149.02 290.74 149.02C291.631 147.973 292.125 144.289 294.18 143.702C300.2 141.982 326 150.582 326 150.582C326 150.582 353.52 140.262 358.68 143.702C360.262 144.757 360.499 148.065 361.26 149.02C364.7 149.88 363.84 150.582 363.84 150.582V202.182H326Z" fill="#FFFEF4"/>
<path d="M358.68 143.702C353.52 140.262 326 150.582 326 150.582M358.68 143.702V195.302L326 202.182M358.68 143.702C360.262 144.757 360.499 148.065 361.26 149.02C364.7 149.88 363.84 150.582 363.84 150.582V202.182H288.16V150.582C288.16 150.582 288.16 149.02 290.74 149.02C291.631 147.973 292.125 144.289 294.18 143.702M326 150.582C326 150.582 300.2 141.982 294.18 143.702M326 150.582V202.182M294.18 143.702V195.302L326 202.182" stroke="#979797" stroke-dasharray="30 2 80 6"/>
<path d="M333.74 202.182H319.12C319.12 202.182 321.122 209.22 326 209.22C330.878 209.22 333.74 202.182 333.74 202.182Z" fill="black" fill-opacity="0.56"/>
<path d="M873 247.5C873 285.44 844.65 316.74 807.99 321.4C804.88 321.8 801.71 322 798.5 322C795.28 322 792.11 321.8 789 321.4C752.34 316.74 724 285.43 724 247.5C724 206.36 757.35 173 798.5 173C839.64 173 873 206.36 873 247.5Z" fill="#6DDAA1"/>
<path d="M732.801 262.794L734.578 266.377L732.801 262.794ZM847.454 374.474C845.259 374.725 843.277 373.149 843.026 370.954L838.938 335.187C838.687 332.992 840.263 331.009 842.458 330.759C844.653 330.508 846.635 332.084 846.886 334.279L850.52 366.072L882.313 362.438C884.508 362.187 886.49 363.763 886.741 365.958C886.992 368.153 885.416 370.136 883.221 370.386L847.454 374.474ZM734.578 266.377C720.728 273.249 707.862 274.902 696.03 272.183C684.257 269.477 673.943 262.541 664.951 253C647.066 234.024 633.725 204.01 623.851 172.95C613.939 141.767 607.36 109 603.261 84.0728C601.21 71.5988 599.775 61.0651 598.853 53.6446C598.392 49.9339 598.059 47.0005 597.841 44.9909C597.732 43.986 597.651 43.2121 597.598 42.6872C597.571 42.4248 597.552 42.2247 597.538 42.0891C597.532 42.0214 597.527 41.9697 597.523 41.9345C597.521 41.9169 597.52 41.9034 597.519 41.894C597.519 41.8894 597.518 41.8855 597.518 41.8831C597.518 41.8803 597.518 41.8784 601.5 41.4999C605.482 41.1214 605.482 41.1216 605.482 41.1229C605.482 41.1248 605.482 41.1271 605.483 41.1307C605.483 41.138 605.485 41.1494 605.486 41.1649C605.489 41.1959 605.494 41.2433 605.5 41.3068C605.512 41.4338 605.531 41.6252 605.557 41.8787C605.609 42.3858 605.687 43.1415 605.794 44.1273C606.008 46.0991 606.337 48.9914 606.792 52.6582C607.704 59.9926 609.123 70.4208 611.155 82.7746C615.222 107.503 621.725 139.854 631.475 170.526C641.264 201.319 654.168 229.895 670.773 247.513C679.026 256.27 688.019 262.133 697.823 264.386C707.568 266.626 718.548 265.4 731.023 259.211L734.578 266.377ZM731.023 259.211C757.696 245.978 785.208 237.497 809.828 234.419C834.335 231.355 856.497 233.583 872.046 242.388C879.89 246.83 886.081 252.971 889.915 260.924C893.743 268.867 895.086 278.339 893.706 289.241C890.962 310.899 877.421 338.657 850.131 372.989L843.869 368.011C870.829 334.093 883.3 307.732 885.769 288.236C886.994 278.561 885.744 270.696 882.708 264.398C879.678 258.11 874.734 253.104 868.103 249.349C854.702 241.76 834.552 239.39 810.821 242.357C787.204 245.31 760.555 253.49 734.578 266.377L731.023 259.211Z" fill="#F0BB04"/>
<path d="M807.99 321.4C804.88 321.8 801.71 322 798.5 322C795.28 322 792.11 321.8 789 321.4V261H807.68L807.7 264.5L807.76 275.9V277L807.79 281.97L807.83 289.5L807.99 321.4Z" fill="#979797"/>
<path d="M770 215C770 209.48 774.48 205 780 205H818C823.52 205 828 209.48 828 215V267C828 272.52 823.52 277 818 277H780C774.48 277 770 272.52 770 267V215Z" fill="black"/>
<path d="M767 264.5H830C832.49 264.5 834.5 266.51 834.5 269V285C834.5 287.49 832.49 289.5 830 289.5H767C764.51 289.5 762.5 287.49 762.5 285V269C762.5 266.52 764.51 264.5 767 264.5Z" fill="#FFFEF4" stroke="#979797"/>
<path d="M784.419 283H782.129L776.509 273.9H776.449L776.489 274.41C776.559 275.38 776.599 276.26 776.599 277.07V283H774.899V271.58H777.169L782.769 280.63H782.819C782.809 280.51 782.789 280.07 782.759 279.32C782.729 278.56 782.709 277.98 782.709 277.55V271.57H784.419V283ZM795.499 283H789.039V271.58H795.499V273.16H790.899V276.27H795.199V277.83H790.899V281.42H795.489V283H795.499ZM810.109 283H808.079L806.139 276.19C806.059 275.89 805.949 275.47 805.829 274.91C805.699 274.35 805.629 273.96 805.599 273.74C805.549 274.07 805.459 274.51 805.339 275.04C805.229 275.57 805.129 275.97 805.049 276.23L803.169 283H801.139L799.659 277.28L798.159 271.58H800.069L801.699 278.24C801.959 279.31 802.139 280.25 802.249 281.07C802.309 280.63 802.389 280.13 802.509 279.59C802.619 279.04 802.729 278.6 802.819 278.26L804.679 271.59H806.529L808.439 278.29C808.619 278.91 808.819 279.84 809.019 281.07C809.099 280.33 809.289 279.38 809.579 278.23L811.209 271.59H813.099L810.109 283ZM822.899 279.9C822.899 280.92 822.529 281.71 821.799 282.29C821.069 282.87 820.049 283.16 818.759 283.16C817.469 283.16 816.409 282.96 815.589 282.56V280.79C816.109 281.03 816.659 281.23 817.249 281.37C817.839 281.51 818.389 281.58 818.889 281.58C819.629 281.58 820.169 281.44 820.519 281.16C820.869 280.88 821.049 280.5 821.049 280.03C821.049 279.6 820.889 279.24 820.569 278.95C820.249 278.65 819.579 278.3 818.569 277.89C817.529 277.47 816.789 276.99 816.369 276.45C815.939 275.91 815.729 275.26 815.729 274.5C815.729 273.55 816.069 272.8 816.749 272.25C817.429 271.7 818.339 271.43 819.479 271.43C820.569 271.43 821.659 271.67 822.749 272.15L822.159 273.67C821.139 273.24 820.239 273.03 819.439 273.03C818.839 273.03 818.379 273.16 818.059 273.43C817.749 273.69 817.589 274.04 817.589 274.47C817.589 274.77 817.649 275.02 817.779 275.24C817.909 275.45 818.109 275.65 818.399 275.83C818.689 276.02 819.199 276.27 819.949 276.57C820.789 276.92 821.399 277.24 821.789 277.55C822.179 277.85 822.469 278.19 822.649 278.57C822.809 278.94 822.899 279.39 822.899 279.9Z" fill="black"/>
<path d="M816 213C818.76 213 821 215.24 821 218V252C821 254.76 818.76 257 816 257C813.24 257 811 254.76 811 252V218C811 215.24 813.24 213 816 213Z" fill="#FFFEF4" fill-opacity="0.5"/>
<circle cx="325.5" cy="427.5" r="74.5" fill="#6DDAA1"/>
<path d="M309.999 430.099L306.873 427.603L309.999 430.099ZM568.225 479.29C570.042 480.547 572.533 480.092 573.79 478.275L594.263 448.664C595.519 446.846 595.065 444.355 593.248 443.099C591.431 441.842 588.939 442.297 587.683 444.114L569.484 470.435L543.163 452.237C541.346 450.981 538.854 451.435 537.598 453.252C536.341 455.069 536.796 457.561 538.613 458.817L568.225 479.29ZM306.873 427.603C301.106 434.829 292.245 440.475 280.765 444.691C269.299 448.901 255.46 451.597 240.055 453.075C209.239 456.032 172.711 454.068 137.575 450.087C102.474 446.11 68.9373 440.142 44.1623 435.163C31.779 432.675 21.5944 430.436 14.5099 428.82C10.9679 428.012 8.20137 427.36 6.32307 426.91C5.38394 426.686 4.6669 426.512 4.18606 426.394C3.94564 426.335 3.76427 426.291 3.64372 426.261C3.58345 426.246 3.53837 426.235 3.50872 426.228C3.4939 426.224 3.48293 426.221 3.47585 426.22C3.47231 426.219 3.46991 426.218 3.46814 426.218C3.46672 426.217 3.46627 426.217 2.49931 430.099C1.53235 433.98 1.53386 433.98 1.53635 433.981C1.53848 433.981 1.54195 433.982 1.5462 433.983C1.55472 433.986 1.56713 433.989 1.58339 433.993C1.61592 434.001 1.6639 434.013 1.72711 434.028C1.85352 434.059 2.04084 434.105 2.28729 434.166C2.78021 434.286 3.5097 434.463 4.46168 434.691C6.36561 435.146 9.15963 435.805 12.7309 436.619C19.873 438.248 30.1259 440.502 42.5863 443.006C67.4988 448.012 101.274 454.025 136.674 458.036C172.038 462.043 209.198 464.073 240.819 461.039C256.632 459.522 271.2 456.726 283.523 452.2C295.832 447.68 306.142 441.344 313.126 432.594L306.873 427.603ZM313.126 432.594C325.306 417.332 345.667 403.653 370.036 393.992C394.357 384.349 422.347 378.839 449.506 379.647C476.668 380.455 502.785 387.57 523.625 402.944C544.392 418.263 560.231 442.006 566.565 476.718L574.435 475.282C567.768 438.744 550.92 413.137 528.374 396.506C505.902 379.929 478.081 372.493 449.743 371.651C421.402 370.808 392.33 376.547 367.088 386.555C341.894 396.543 320.192 410.915 306.873 427.603L313.126 432.594Z" fill="#F0BB04"/>
<rect x="283" y="384" width="86" height="86" rx="15" fill="black"/>
<rect x="293" y="394" width="66" height="66" rx="10" fill="#FFFEF4"/>
<path d="M313.783 412.775C313.783 410.465 316.283 409.022 318.283 410.177L343.547 424.763C345.547 425.918 345.547 428.805 343.547 429.96L318.283 444.546C316.283 445.701 313.783 444.258 313.783 441.948L313.783 412.775Z" fill="black"/>
<circle cx="1034.5" cy="427.5" r="74.5" fill="#6DDAA1"/>
<rect x="991.999" y="384" width="86" height="86" rx="15" fill="black"/>
<rect x="1002" y="394" width="66" height="66" rx="10" fill="#FFFEF4"/>
<path d="M1064.5 352L1067.53 361.328H1077.34L1069.4 367.093L1072.43 376.422L1064.5 370.657L1056.56 376.422L1059.6 367.093L1051.66 361.328H1061.47L1064.5 352Z" fill="#F1CB46"/>
<path d="M955.047 472.793L948.107 481.512L954.255 490.806L943.818 486.9L936.878 495.619L937.368 484.486L926.931 480.581L937.671 477.606L938.16 466.473L944.308 475.767L955.047 472.793Z" fill="#F1CB46"/>
<path d="M1119 351L1121.24 357.91H1128.51L1122.63 362.18L1124.88 369.09L1119 364.82L1113.12 369.09L1115.37 362.18L1109.49 357.91H1116.75L1119 351Z" fill="#F1CB46"/>
<path d="M1101 414L1103.24 420.91H1110.51L1104.63 425.18L1106.88 432.09L1101 427.82L1095.12 432.09L1097.37 425.18L1091.49 420.91H1098.75L1101 414Z" fill="#F1CB46"/>
<path d="M1034.5 405L1039.55 420.547H1055.9L1042.67 430.156L1047.72 445.703L1034.5 436.094L1021.27 445.703L1026.33 430.156L1013.1 420.547H1029.45L1034.5 405Z" fill="black"/>
</svg>
