<?xml version="1.0" encoding="UTF-8"?>
<svg width="1456" height="856" viewBox="0 0 1356 701" fill="none" xmlns="http://www.w3.org/2000/svg">
<rect width="1440" height="490" fill="#6DDAA1"/>
<rect width="1440" height="490" fill="url(#paint0_linear)"/>
<rect width="1440" height="490" fill="url(#paint1_linear)"/>
<g opacity="0.45445" filter="url(#filter0_d)">
<path fill-rule="evenodd" clip-rule="evenodd" d="M1232.29 490H1225.94C1230.16 477.756 1239.35 457.51 1257.77 439.998C1286.44 412.733 1334.13 393.823 1360.94 388.526C1368.18 387.095 1359.62 395.128 1342.21 411.488C1335.71 417.595 1327.97 424.862 1319.36 433.23C1302.61 449.501 1283.24 455.975 1267.23 461.328C1252.94 466.103 1241.32 469.986 1236.62 479.135C1234.79 482.698 1233.37 486.52 1232.29 490ZM1225.83 490H1211.25C1210.96 485.594 1210.32 480.271 1208.96 475.249C1206.19 465.08 1195.54 458.989 1182.45 451.497L1182.44 451.492C1181.11 450.732 1179.76 449.958 1178.38 449.164C1179.61 459.046 1178.47 468.106 1177.49 475.961C1176.84 481.217 1176.25 485.935 1176.47 490H1169.27C1166.94 485.681 1164.79 480.783 1163.13 475.33C1159.49 463.351 1158.21 449.286 1158.37 436.075C1150.7 430.13 1143.23 422.835 1136.83 413.311C1130.05 403.214 1123.91 394.398 1118.75 386.989C1104.92 367.143 1098.13 357.397 1104.97 360.189C1130.28 370.522 1173.39 398.548 1196.08 431.559C1205.31 444.98 1210.67 458.832 1213.79 470.546C1213.85 457.874 1213.36 444.28 1211.43 435.951C1209.69 428.463 1203.66 420.96 1196.54 412.104C1185.52 398.391 1171.89 381.436 1167.57 356.28C1160.47 314.879 1158.5 296.646 1164.24 300.63C1183.99 314.313 1211.75 354.679 1218.57 391.612C1222.32 411.949 1221.64 443.353 1220.27 467.47C1221.13 462.867 1222.02 458.447 1222.86 454.243V454.242C1225.37 441.772 1227.49 431.2 1227.49 423.367C1227.5 397.7 1222.04 373.395 1217.14 351.588V351.587C1213.39 334.926 1209.98 319.723 1209.58 306.482C1207.54 239.327 1227.75 211.631 1230.34 222.179C1239.51 259.509 1248.91 273.745 1255.68 283.993C1262.28 293.989 1266.38 300.191 1265.31 320.335C1264.1 343.124 1259.05 356.517 1252.94 372.702C1248.65 384.082 1243.83 396.843 1239.47 415.222C1238.85 417.796 1238.21 420.702 1237.54 423.851C1242.08 411.145 1247.44 398.814 1253.49 388.554C1277.99 347.013 1361.31 331.365 1377.31 337.969C1382.47 340.1 1378.53 341.177 1371.16 343.194C1364.06 345.137 1353.78 347.951 1345.38 353.42C1339.77 357.075 1334.26 364.181 1327.87 372.42C1314.78 389.301 1298.01 410.941 1269.09 417.415C1237.67 424.446 1230.38 464.795 1226.31 487.32C1226.14 488.244 1225.98 489.139 1225.83 490ZM1150.01 490H1155.67C1151.86 474.512 1146.59 456.421 1140.44 444.65C1127.79 420.427 1098.58 396.636 1080.85 389.938C1075.69 387.988 1080.88 400.129 1094.65 427.353C1103.02 443.894 1116.78 453.626 1127.91 461.498C1135.09 466.582 1141.18 470.889 1144.02 475.753C1146.08 479.292 1148.13 484.444 1150.01 490ZM1315.02 490C1320.61 473.821 1328.79 452.726 1337.22 440.024C1352.36 417.244 1383.92 396.609 1402.26 391.783C1407.6 390.378 1401.16 401.915 1384.58 427.563C1374.52 443.148 1359.81 451.402 1347.91 458.079C1340.22 462.39 1333.71 466.043 1330.38 470.587C1327.09 475.084 1323.5 482.549 1320.33 490H1315.02ZM1327.85 490H1332.68C1336.71 486.506 1343.02 485.214 1350.49 483.686C1360.62 481.615 1372.86 479.11 1384.41 470.105C1390.36 465.474 1395.67 461.474 1400.14 458.112C1412.11 449.107 1417.98 444.685 1413.5 444.988C1396.89 446.108 1366.48 454.178 1346.75 469.216C1338.2 475.731 1332.06 483.401 1327.85 490ZM1134.54 490H1141.89C1138.47 483.961 1133.77 477.34 1127.38 471.319C1109.35 454.321 1079.95 443.145 1063.55 440.312C1059.12 439.546 1064.5 444.551 1075.45 454.747C1079.54 458.552 1084.4 463.082 1089.83 468.303C1100.37 478.455 1112.28 482.214 1122.13 485.322C1126.87 486.818 1131.13 488.164 1134.54 490Z" fill="#F3F0E0"/>
</g>
<g opacity="0.45445" filter="url(#filter1_d)">
<path fill-rule="evenodd" clip-rule="evenodd" d="M212.748 489.521H219.765C215.105 476.029 204.955 453.719 184.619 434.422C152.959 404.378 100.301 383.541 70.6993 377.704C62.7028 376.127 72.1463 384.979 91.3781 403.006C98.5572 409.736 107.1 417.744 116.609 426.965C135.098 444.894 156.489 452.028 174.174 457.926C189.952 463.188 202.781 467.467 207.967 477.549C209.986 481.475 211.557 485.686 212.748 489.521ZM219.89 489.521H235.986C236.302 484.666 237.007 478.8 238.516 473.267C241.572 462.061 253.33 455.349 267.791 447.093L267.8 447.088C269.266 446.251 270.76 445.398 272.275 444.523C270.926 455.412 272.176 465.395 273.26 474.051C273.985 479.843 274.636 485.042 274.385 489.521H282.334C284.911 484.762 287.283 479.364 289.115 473.356C293.141 460.156 294.548 444.657 294.373 430.099C302.847 423.548 311.097 415.51 318.159 405.015C325.644 393.889 332.426 384.174 338.125 376.01C353.392 354.141 360.888 343.402 353.338 346.478C325.388 357.865 277.793 388.747 252.734 425.123C242.546 439.912 236.621 455.176 233.175 468.084C233.113 454.12 233.659 439.141 235.791 429.963C237.707 421.712 244.367 413.444 252.226 403.685C264.397 388.574 279.444 369.891 284.212 342.171C292.058 296.55 294.237 276.459 287.889 280.849C266.084 295.926 235.427 340.407 227.905 381.104C223.762 403.514 224.514 438.119 226.026 464.694C225.072 459.622 224.092 454.752 223.159 450.119V450.118C220.394 436.377 218.049 424.728 218.048 416.096C218.046 387.813 224.075 361.031 229.484 337.001V337C233.616 318.641 237.387 301.888 237.832 287.297C240.085 213.297 217.768 182.778 214.907 194.401C204.78 235.536 194.398 251.223 186.924 262.516C179.633 273.531 175.11 280.365 176.291 302.562C177.627 327.674 183.206 342.432 189.949 360.267C194.69 372.807 200.006 386.869 204.827 407.121C205.503 409.957 206.217 413.16 206.958 416.63C201.938 402.628 196.02 389.04 189.34 377.735C162.287 331.959 70.2895 314.716 52.6212 321.994C46.9215 324.342 51.2691 325.529 59.4047 327.751C67.2449 329.892 78.6029 332.993 87.8765 339.02C94.0744 343.047 100.157 350.877 107.209 359.956C121.659 378.558 140.183 402.404 172.12 409.537C206.814 417.285 214.861 461.747 219.354 486.568C219.538 487.586 219.716 488.572 219.89 489.521ZM303.608 489.521H297.362C301.561 472.454 307.388 452.519 314.174 439.548C328.138 412.856 360.394 386.641 379.973 379.26C385.673 377.111 379.942 390.49 364.733 420.488C355.492 438.715 340.299 449.44 328.011 458.114C320.076 463.716 313.352 468.462 310.225 473.822C307.949 477.722 305.683 483.399 303.608 489.521ZM121.4 489.521C115.231 471.693 106.199 448.448 96.8821 434.451C80.1722 409.349 45.3213 386.611 25.069 381.293C19.1728 379.745 26.2875 392.458 44.5851 420.72C55.703 437.893 71.9467 446.989 85.0845 454.346C93.5686 459.097 100.758 463.122 104.434 468.129C108.073 473.085 112.041 481.311 115.534 489.521H121.4ZM107.234 489.521H101.9C97.45 485.671 90.4768 484.247 82.228 482.563C71.0506 480.281 57.5311 477.521 44.7733 467.598C38.2114 462.495 32.3414 458.087 27.4085 454.383C14.1943 444.46 7.70574 439.587 12.6602 439.921C31.0006 441.155 64.5802 450.048 86.3679 466.619C95.8078 473.798 102.585 482.249 107.234 489.521ZM320.693 489.521H312.577C316.344 482.866 321.538 475.571 328.592 468.936C348.508 450.205 380.963 437.89 399.073 434.768C403.965 433.924 398.027 439.44 385.934 450.675C381.42 454.868 376.049 459.859 370.062 465.612C358.424 476.799 345.27 480.941 334.395 484.366C329.158 486.015 324.449 487.498 320.693 489.521Z" fill="#F3F0E0"/>
</g>
<g filter="url(#filter2_d)">
<path fill-rule="evenodd" clip-rule="evenodd" d="M1212.76 443.465L1136.86 444.174L1131.19 490.279H1219.14L1212.76 443.465Z" fill="#F0BB04"/>
</g>
<g filter="url(#filter3_d)">
<path fill-rule="evenodd" clip-rule="evenodd" d="M1133.39 349.06C1127.68 344.432 1119.09 348.084 1118.89 355.224L1117.55 401.016C1117.43 401.803 1117.31 402.596 1117.23 403.398C1114.46 429.163 1137.46 452.653 1168.57 455.866C1199.49 459.061 1226.81 441.015 1229.84 415.492L1240.2 368.82C1241.83 361.586 1233.88 356.049 1227.22 359.753L1205.84 371.611C1198.04 366.847 1188.72 363.623 1178.53 362.571C1169.47 361.636 1160.73 362.522 1152.84 364.881L1133.39 349.06Z" fill="#F0BB04"/>
</g>
<path fill-rule="evenodd" clip-rule="evenodd" d="M1166.82 409.967C1165.28 411.31 1162.92 411.069 1161.71 409.448C1159.82 406.982 1161.83 403.452 1164.9 403.763C1168 404.078 1169.18 407.931 1166.82 409.967Z" fill="white"/>
<path fill-rule="evenodd" clip-rule="evenodd" d="M1132.64 397.453C1132.21 401.46 1135.46 405.084 1139.9 405.542C1144.31 406.001 1148.26 403.122 1148.67 399.115C1149.1 395.105 1145.85 391.484 1141.44 391.025C1137 390.564 1133.08 393.442 1132.64 397.453ZM1184.61 402.699C1184.2 406.709 1187.42 410.33 1191.87 410.789C1196.28 411.25 1200.23 408.372 1200.66 404.362C1201.07 400.354 1197.85 396.73 1193.41 396.272C1188.99 395.813 1185.04 398.692 1184.61 402.699Z" fill="white"/>
<path d="M1169.29 462.279C1187.74 462.279 1192 490.279 1192 490.279H1148C1148 490.279 1150.84 462.279 1169.29 462.279Z" fill="white" fill-opacity="0.8"/>
<g filter="url(#filter4_d)">
<path fill-rule="evenodd" clip-rule="evenodd" d="M1245.1 490.279C1245.1 490.279 1255.2 475.895 1245.1 464.055C1233.87 450.857 1232.1 434.526 1246.32 423.182C1260.1 412.193 1284.01 410.168 1295.62 431.377C1307.23 452.583 1292.57 458.079 1288.22 452.914C1283.87 447.745 1287.55 429.851 1267.53 431.913C1247.48 433.979 1252.93 448.895 1261.81 459.834C1269.91 469.832 1266.34 482.732 1263.12 490.279H1245.1Z" fill="#F0BB04"/>
<path fill-rule="evenodd" clip-rule="evenodd" d="M1245.1 490.279C1245.1 490.279 1255.2 475.895 1245.1 464.055C1233.87 450.857 1232.1 434.526 1246.32 423.182C1260.1 412.193 1284.01 410.168 1295.62 431.377C1307.23 452.583 1292.57 458.079 1288.22 452.914C1283.87 447.745 1287.55 429.851 1267.53 431.913C1247.48 433.979 1252.93 448.895 1261.81 459.834C1269.91 469.832 1266.34 482.732 1263.12 490.279H1245.1Z" fill="url(#paint2_linear)"/>
</g>
<defs>
<filter id="filter0_d" x="1058" y="220" width="361" height="278" filterUnits="userSpaceOnUse" color-interpolation-filters="sRGB">
<feFlood flood-opacity="0" result="BackgroundImageFix"/>
<feColorMatrix in="SourceAlpha" type="matrix" values="0 0 0 0 0 0 0 0 0 0 0 0 0 0 0 0 0 0 127 0"/>
<feOffset dy="4"/>
<feGaussianBlur stdDeviation="2"/>
<feColorMatrix type="matrix" values="0 0 0 0 0 0 0 0 0 0 0 0 0 0 0 0 0 0 0.1 0"/>
<feBlend mode="normal" in2="BackgroundImageFix" result="effect1_dropShadow"/>
<feBlend mode="normal" in="SourceGraphic" in2="effect1_dropShadow" result="shape"/>
</filter>
<filter id="filter1_d" x="7" y="192" width="397.788" height="305.521" filterUnits="userSpaceOnUse" color-interpolation-filters="sRGB">
<feFlood flood-opacity="0" result="BackgroundImageFix"/>
<feColorMatrix in="SourceAlpha" type="matrix" values="0 0 0 0 0 0 0 0 0 0 0 0 0 0 0 0 0 0 127 0"/>
<feOffset dy="4"/>
<feGaussianBlur stdDeviation="2"/>
<feColorMatrix type="matrix" values="0 0 0 0 0 0 0 0 0 0 0 0 0 0 0 0 0 0 0.1 0"/>
<feBlend mode="normal" in2="BackgroundImageFix" result="effect1_dropShadow"/>
<feBlend mode="normal" in="SourceGraphic" in2="effect1_dropShadow" result="shape"/>
</filter>
<filter id="filter2_d" x="1125.19" y="439.465" width="103.953" height="62.814" filterUnits="userSpaceOnUse" color-interpolation-filters="sRGB">
<feFlood flood-opacity="0" result="BackgroundImageFix"/>
<feColorMatrix in="SourceAlpha" type="matrix" values="0 0 0 0 0 0 0 0 0 0 0 0 0 0 0 0 0 0 127 0"/>
<feOffset dx="2" dy="4"/>
<feGaussianBlur stdDeviation="4"/>
<feColorMatrix type="matrix" values="0 0 0 0 0 0 0 0 0 0 0 0 0 0 0 0 0 0 0.25 0"/>
<feBlend mode="normal" in2="BackgroundImageFix" result="effect1_dropShadow"/>
<feBlend mode="normal" in="SourceGraphic" in2="effect1_dropShadow" result="shape"/>
</filter>
<filter id="filter3_d" x="1111" y="339" width="139.419" height="125.233" filterUnits="userSpaceOnUse" color-interpolation-filters="sRGB">
<feFlood flood-opacity="0" result="BackgroundImageFix"/>
<feColorMatrix in="SourceAlpha" type="matrix" values="0 0 0 0 0 0 0 0 0 0 0 0 0 0 0 0 0 0 127 0"/>
<feOffset dx="2"/>
<feGaussianBlur stdDeviation="4"/>
<feColorMatrix type="matrix" values="0 0 0 0 0 0 0 0 0 0 0 0 0 0 0 0 0 0 0.1 0"/>
<feBlend mode="normal" in2="BackgroundImageFix" result="effect1_dropShadow"/>
<feBlend mode="normal" in="SourceGraphic" in2="effect1_dropShadow" result="shape"/>
</filter>
<filter id="filter4_d" x="1234.16" y="415.093" width="71.8372" height="83.186" filterUnits="userSpaceOnUse" color-interpolation-filters="sRGB">
<feFlood flood-opacity="0" result="BackgroundImageFix"/>
<feColorMatrix in="SourceAlpha" type="matrix" values="0 0 0 0 0 0 0 0 0 0 0 0 0 0 0 0 0 0 127 0"/>
<feOffset dx="2" dy="4"/>
<feGaussianBlur stdDeviation="2"/>
<feColorMatrix type="matrix" values="0 0 0 0 0 0 0 0 0 0 0 0 0 0 0 0 0 0 0.1 0"/>
<feBlend mode="normal" in2="BackgroundImageFix" result="effect1_dropShadow"/>
<feBlend mode="normal" in="SourceGraphic" in2="effect1_dropShadow" result="shape"/>
</filter>
<linearGradient id="paint0_linear" x1="606" y1="-323" x2="697" y2="490" gradientUnits="userSpaceOnUse">
<stop stop-color="#6DDAA1"/>
<stop offset="0.626643" stop-color="#7EBE74" stop-opacity="0.83"/>
</linearGradient>
<linearGradient id="paint1_linear" x1="734.5" y1="627.5" x2="739" y2="229.5" gradientUnits="userSpaceOnUse">
<stop offset="0.213442" stop-color="#6DDAA1"/>
<stop offset="0.560828" stop-color="#7EBE74" stop-opacity="0.37"/>
</linearGradient>
<linearGradient id="paint2_linear" x1="1268.08" y1="415.093" x2="1268.08" y2="490.279" gradientUnits="userSpaceOnUse">
<stop stop-color="#F1C119"/>
<stop offset="1" stop-color="#F3E2A3" stop-opacity="0.09"/>
</linearGradient>
</defs>
</svg>
