<svg width="370" height="489" viewBox="0 0 370 489" fill="none" xmlns="http://www.w3.org/2000/svg">
<path opacity="0.7" fill-rule="evenodd" clip-rule="evenodd" d="M64.2957 394.7C64.0958 392.2 63.8958 389.5 63.5958 386.6C62.5959 377.8 60.696 367.5 57.9962 356.6C56.7963 351.9 55.4964 347.2 53.9965 342.4C53.5965 341.1 53.1965 339.9 52.7965 338.6C50.5967 331.9 48.0969 325.1 45.2971 318.6C41.2973 309.3 36.6977 300.4 31.398 292.7C30.9981 292.1 30.5981 291.6 30.1981 291C21.5987 278.8 11.6994 269.9 3.09999 263.7V271.1C6.59975 275.6 8.49962 282.1 9.99951 289.7C10.5995 292.5 11.0994 295.3 11.5994 298.4C11.9994 300.3 12.2994 302.3 12.6993 304.3C14.0992 311.7 15.8991 319.7 18.6989 327.8C20.6988 333.5 23.2986 339.2 26.5984 344.9C27.6983 346.7 28.7982 348.5 29.9981 350.2C32.298 353.6 34.5978 356.8 36.6977 360C38.6975 363 40.6974 365.9 42.4973 368.6C43.7972 370.6 45.0971 372.5 46.297 374.3C48.1969 377.1 49.8967 379.6 51.3966 382C53.6965 385.4 55.6963 388.3 57.2962 390.5C62.2959 397.1 64.4957 399 64.2957 394.7ZM136.591 377.5C132.691 360.9 121.292 337.2 106.193 315.8C96.2935 301.7 84.7943 288.7 72.6952 279.3C72.0952 278.8 71.5952 278.4 70.9953 278C53.6965 265.1 25.0985 252.6 3.09999 244V252.1C13.1993 256.9 23.3986 262.4 29.4982 267.5C35.1978 272.2 39.8974 281.2 45.2971 291.8C45.697 292.6 46.097 293.5 46.597 294.3C47.3969 295.9 48.1969 297.6 49.0968 299.2C50.2967 301.6 51.5966 304.1 52.8965 306.6C55.3964 311.4 58.1962 316.3 61.3959 321.2C62.1959 322.4 62.9958 323.7 63.7958 324.9C66.0956 328.3 68.5955 331.6 71.3953 334.8C72.5952 336.2 73.7951 337.6 75.095 339C78.9947 343.1 83.2944 347 88.0941 350.5C91.8938 353.3 95.4936 355.8 98.7934 358.2C125.991 377.8 138.291 384.8 136.591 377.5ZM3.09999 0V0.3C3.39997 0.2 3.79994 0.1 4.09992 0H3.09999ZM252.583 82.8C235.784 83.4 216.585 88 195.687 93.2C194.187 93.6 192.787 94 191.287 94.3C167.489 100.3 141.39 106.9 113.992 109.3C107.293 109.9 100.593 110.2 93.6937 110.2C88.3941 110.2 82.0945 109.4 75.095 108.1C68.0955 106.8 60.196 105 51.7966 103.1C46.097 101.8 40.0974 100.4 33.7979 99.1C59.4961 100.8 91.2939 101.7 117.192 99.3C124.292 98.6 130.991 97.7 136.891 96.5C151.89 93.4 167.189 87.4 181.988 79.8C216.585 61.8 247.483 34.6 260.582 13.4C265.982 4.6 241.183 7.6 184.987 18.5C150.69 25.1 127.591 46 108.993 62.8C96.8935 73.7 86.6942 82.9 76.5949 85.6C65.2957 88.6 46.797 89.3 29.5982 89.2C45.4971 84.4 64.3957 76.2 82.5945 62.1C103.293 46.1 122.492 23.5 138.591 0H79.5947C78.4948 1.5 77.4948 3 76.4949 4.4C58.4962 4.1 39.3975 6.1 23.0986 11.7C15.5991 14.3 8.99958 17.5 3.09999 21.1V32.1C8.59961 31.8 14.9992 32.6 22.1987 33.7C32.8979 35.2 45.1971 36.9 58.5961 35.1C57.4962 37.2 56.4963 39.3 55.3964 41.3C45.1971 61.3 36.8976 77.6 23.0986 81.9C16.2991 84 8.99958 85 3.09999 85.4V107.7C4.29991 107.9 5.49983 108.2 6.69974 108.5C37.2976 114.7 92.1938 125.9 101.693 173.9C110.493 218.2 139.891 243.8 162.889 263.8C174.088 273.6 183.787 282 188.687 290.6C196.087 303.4 199.986 319.2 202.586 330C205.386 341.3 206.786 347.3 209.686 339.4C217.785 317.3 201.186 210.9 156.089 163C151.29 158 146.29 153.6 140.89 150C133.591 145.1 125.392 140.5 116.792 136.3C109.093 132.5 100.993 128.9 92.8938 125.6C97.1935 126.6 101.093 127.6 104.593 128.5C108.193 129.5 111.692 130.5 114.992 131.4C134.591 137.3 149.19 143.5 162.389 149.1C168.789 151.8 174.788 154.4 180.888 156.7C195.987 162.4 211.486 166.7 233.484 168C235.984 168.2 238.384 168.2 240.584 168.3C262.482 168.5 270.481 162.5 282.881 153.3C296.78 142.9 316.178 128.6 366.875 114.5C381.474 110.5 343.776 79.6 252.583 82.8ZM140.99 314.3C133.791 273.3 108.093 200.3 70.9953 156.5C47.1969 128.3 19.6988 114.3 3 107.8V117.5C7.69967 119.2 12.8993 121.3 17.799 124.1C30.1981 131.3 35.4977 149.1 41.9973 170.9C49.2968 195.4 58.0962 225 80.1946 250.6C89.494 261.4 97.7934 271.3 105.093 280C106.693 281.9 108.293 283.8 109.793 285.6C111.192 287.3 112.592 289 113.892 290.6C133.391 313.9 142.89 324.7 140.99 314.3Z" fill="#F3F0E0" fill-opacity="0.8"/>
<path fill-rule="evenodd" clip-rule="evenodd" d="M52.7965 292.3V339L51.6966 339.3L26.6983 344.9L14.5992 347.6L4.1999 350L3.09998 350.2V289.2L9.9995 289.7L30.1981 290.9L45.1971 291.9L52.7965 292.3Z" fill="#F0BB04"/>
<path fill-rule="evenodd" clip-rule="evenodd" d="M114.792 289.6C117.792 285.9 115.392 280.3 110.792 280.2L81.0945 279.3C80.5946 279.2 80.0946 279.1 79.5946 279.1C62.8958 277.3 47.5969 292.2 45.597 312.4C43.4971 332.5 55.1963 350.2 71.7952 352.2L102.093 358.9C106.793 360 110.393 354.8 107.993 350.5L100.293 336.6C103.393 331.5 105.493 325.5 106.193 318.9C106.793 313 106.193 307.4 104.693 302.2L114.792 289.6Z" fill="#F0BB04"/>
<path fill-rule="evenodd" clip-rule="evenodd" d="M60.196 325C59.2961 324 59.4961 322.5 60.496 321.7C62.0959 320.5 64.3958 321.8 64.1958 323.8C63.9958 325.7 61.496 326.5 60.196 325Z" fill="white"/>
<path fill-rule="evenodd" clip-rule="evenodd" d="M74.295 301.1C71.6952 300.8 69.2954 302.9 69.0954 305.8C68.7954 308.7 70.6953 311.2 73.2951 311.5C75.8949 311.8 78.2947 309.7 78.4947 306.8C78.6947 303.9 76.8948 301.4 74.295 301.1ZM70.8952 334.8C68.2954 334.5 65.8956 336.6 65.6956 339.5C65.3956 342.4 67.2955 344.9 69.8953 345.2C72.4951 345.5 74.895 343.4 75.0949 340.5C75.2949 337.6 73.4951 335.1 70.8952 334.8Z" fill="white"/>
<path d="M41.0973 315.3C41.0973 321.2 30.6981 325.2 18.7989 327.8C13.5992 328.9 8.09963 329.8 3.09998 330.5V303.7C6.19976 303.8 9.49953 304 12.7993 304.3C26.8983 305.5 41.0973 308.4 41.0973 315.3Z" fill="white" fill-opacity="0.8"/>
<path d="M118.602 446C210.275 446 284.591 371.679 284.591 280C284.591 188.321 210.275 114 118.602 114" stroke="#EABF2A" stroke-width="3" stroke-linecap="round" stroke-dasharray="2 15"/>
<path d="M123.592 452C76.4072 452 33.8212 432.311 3.59994 400.7" stroke="#EABF2A" stroke-width="3" stroke-linecap="round" stroke-dasharray="2 15"/>
<path d="M158.089 163C182.94 163 203.086 142.853 203.086 118C203.086 93.1472 182.94 73 158.089 73C133.238 73 113.092 93.1472 113.092 118C113.092 142.853 133.238 163 158.089 163Z" fill="#34D086"/>
<path d="M163.589 134H157.589V117.5L157.689 114.8L157.789 111.8C156.789 112.8 156.089 113.5 155.689 113.8L152.39 116.4L149.49 112.8L158.689 105.5H163.689V134H163.589Z" fill="white"/>
<path d="M278.081 320C302.932 320 323.078 299.853 323.078 275C323.078 250.147 302.932 230 278.081 230C253.23 230 233.084 250.147 233.084 275C233.084 299.853 253.23 320 278.081 320Z" fill="#34D086"/>
<path d="M288.58 291H268.582V286.8L275.781 279.6C277.881 277.4 279.281 275.9 279.981 275.1C280.681 274.3 281.081 273.5 281.381 272.8C281.681 272.1 281.781 271.3 281.781 270.6C281.781 269.5 281.481 268.6 280.781 268C280.181 267.4 279.281 267.2 278.281 267.2C277.181 267.2 276.081 267.5 275.081 268C274.081 268.5 272.981 269.2 271.781 270.2L268.482 266.3C269.881 265.1 271.081 264.3 271.981 263.8C272.881 263.3 273.881 262.9 274.981 262.7C276.081 262.4 277.281 262.3 278.681 262.3C280.481 262.3 282.081 262.6 283.381 263.3C284.68 264 285.78 264.9 286.58 266C287.38 267.1 287.68 268.5 287.68 270C287.68 271.3 287.48 272.6 286.98 273.7C286.48 274.8 285.78 276 284.88 277.2C283.88 278.4 282.181 280.1 279.781 282.4L276.081 285.9V286.2H288.58V291Z" fill="white"/>
<path d="M154.09 489C178.941 489 199.086 468.853 199.086 444C199.086 419.147 178.941 399 154.09 399C129.238 399 109.093 419.147 109.093 444C109.093 468.853 129.238 489 154.09 489Z" fill="#34D086"/>
<path d="M163.489 437.8C163.489 439.6 162.989 441.1 161.889 442.4C160.789 443.7 159.289 444.5 157.289 445V445.1C159.589 445.4 161.389 446.1 162.489 447.2C163.689 448.3 164.289 449.8 164.289 451.7C164.289 454.4 163.289 456.6 161.289 458.1C159.289 459.6 156.489 460.4 152.79 460.4C149.69 460.4 146.99 459.9 144.59 458.9V453.8C145.69 454.4 146.89 454.8 148.29 455.2C149.59 455.6 150.89 455.7 152.19 455.7C154.19 455.7 155.689 455.4 156.589 454.7C157.589 454 157.989 452.9 157.989 451.4C157.989 450.1 157.489 449.1 156.389 448.5C155.289 447.9 153.59 447.7 151.19 447.7H148.99V443H151.19C153.39 443 154.99 442.7 155.989 442.1C156.989 441.5 157.489 440.5 157.489 439.1C157.489 436.9 156.089 435.9 153.39 435.9C152.49 435.9 151.49 436.1 150.49 436.4C149.49 436.7 148.49 437.3 147.29 438L144.49 433.8C147.09 431.9 150.19 431 153.79 431C156.789 431 159.089 431.6 160.789 432.8C162.689 434 163.489 435.7 163.489 437.8Z" fill="white"/>
</svg>
